<svg xmlns="http://www.w3.org/2000/svg" viewBox="0 0 564 564"><defs><style>.a{fill:#38dcfd;}.b{fill:#0e0f6d;}.c{fill:#12146a;}.d{fill:#3cd5f8;}.e{fill:#6d71a7;}.f{fill:#c5c6df;}.g{fill:#f9a32b;}.h{fill:#ec7f28;}.i{fill:#898fb3;}.j{fill:#f1324d;}.k{fill:#f5f5f3;}.l{fill:#c42754;}.m{fill:#acb2e0;}.n{fill:#f0d0a1;}.o{fill:#f179aa;}.p{fill:#c16195;}</style></defs><path class="a" d="M281.46,563.91q-138.67,0-277.33.09C.74,564,0,563.37,0,559.92Q.19,282.08,0,4.23C0,.31,1.19,0,4.48,0Q282.06.14,559.63,0C563.2,0,564,.69,564,4.33q-.16,277.59,0,555.19c0,4-1.18,4.47-4.72,4.47Q420.37,563.83,281.46,563.91ZM408.83,94.2l0,.06c-.24-1,1-3.24-1.06-2.73-2.59.64-5.69,0-7.75,2.36-13.52,1.9-25.91,7.15-38.08,13a9.9,9.9,0,0,1-10.7-.68,78.34,78.34,0,0,0-32.54-12,10.14,10.14,0,0,1-8.16-5.37C303.45,77.15,295.93,65.72,285.09,57c-12-9.66-23.11-8.05-31.87,4.66-7.88,11.42-11.45,24.64-14.86,37.79C237.22,103.9,236,106,231,106c-13.32.06-26.64.65-39.95,1.16-.6,0-3.56-1.65-2.09,1.59,1.2,1.57,2.94,1.32,4.58,1.31q15.48,0,30.94-.09c2.66,0,5.31,0,8-.14,2.35-.07,3.33.72,2.7,3.26-3.07,12.46-4.06,25.44-10.85,36.92-4.48,7.56-8,15.7-11.71,23.71-1,2.25-2.43,2.78-4.6,2.84q-11.74.27-23.47.71c-6.44.24-12.88.57-19.33.86a4.88,4.88,0,0,0,3.37,1.14c12.32.38,24.64.8,37,1.05,3.23.06,4.41.84,3.61,4.4-4.29,19,1.85,34.35,16.9,46.4,2.71,2.17,6.87,4.24,7.42,6.95.58,2.89-4,5.11-6,7.95-6.85,9.79-12.9,20.09-20.47,29.46-9.81,12.14-17.2,25.74-19.26,41.61-.52,4-2.73,2.33-4.55,1.55-12.67-5.47-19.33-15.54-20.88-28.86-1.61-13.77,1.51-26.11,13.3-34.92,2.47-1.84,5-3.47,4.46-7.11s-3.42-4.66-6.29-5.63c-17.83-6.07-35.53-1.18-47.86,13.17-8.07,9.4-11.11,20.64-12,32.68q-9,0-18,.05c-1.16,0-1.16.05-2,1.58H75.52l0,2.35c2.37,0,4.73-.06,7.1,0,9.29.24,18.57.65,27.87.72,3,0,4,1.06,4.43,3.88,3.46,21.13,15,36.08,34.68,44.61,2.26,1,3.79,1.64,2.82,4.94-.89,3.06-.24,6.56-.26,9.87.25,3.15-1.1,4.5-4.31,4a6.22,6.22,0,0,0-4.7,1c-4.05,1.21-8.21.88-12.35,1-1.75,0-3.66-.34-4.75,1.64l-28.58,1.11v1.42c2.86,0,5.72-.08,8.58,0,9.3.28,18.6.63,27.9.93,2.4.08,3.82.56,1.37,2.9-4.67,3.75-2.2,8.9-2.38,13.4-.3,7.33,1.64,8.82,9.14,8.33l2.79.21L138.25,402c-1,1.17-2,2.31-2.21,3.93-1.49,2.18-3.28,4.44-3,7.1s3.36,2.07,5.08,3.13.68,2.3.35,3.5c-1.23,4.46-2.77,8.94-2.4,13.57s-1.5,7.43-5.76,8.85c-1.66.19-2.19,1.29-2.19,2.78,0,4.31,0,8.62,0,12.94,0,.78.46,1.2,1.26.59.86.77,1.63,2.05,2.59,2.2,7.26,1.16,11.22,6.42,15.12,11.79a64,64,0,0,0,8.68,9.56c4.62,4.23,10,7.27,16.67,10.79l-60.32,1.4H97.42A160.13,160.13,0,0,0,128,495.7l17.08.7-7.41.85.05.68h5.39q132.81,0,265.62,0a25.08,25.08,0,0,1,5.95.34c12.33,3,24.42,2.86,36.25-2.17l16.48-.39a101.45,101.45,0,0,0,18.64-.57,7.48,7.48,0,0,0-5.67-1l-21.4-.57c0-3.11-2.38-1.62-3.57-1.63-12.77-.12-25.54-.05-38.3-.11-1.84,0-4.14.83-5.14-1.78.83-.55,1.64-1.13,2.49-1.65,24.57-15.1,34.86-43.85,25.44-71.1-3.62-10.48-10.34-18.83-18.27-26.32l.37-1c1-5-4-4.48-6.12-6.59a.67.67,0,0,0-.75-.47l-1.05-.6-1.09-.46a5.08,5.08,0,0,0-3-1.63c-4.82-2.75-10.23-3.68-15.54-4.84a3.57,3.57,0,0,1-3.12-3.22c-.23-1.2-.42-2.27,1-2.87,9.1-3.67,10.79-12,12.18-20.2,2.55-14.94-5.87-30.21-18.53-34.58,0-1.41,0-2.82,0-4.23,6.3-3.88,8-9.9,7.35-16.73-.7-7.1-5.78-10.51-11.9-12.59a49.17,49.17,0,0,0-9.19-2.11c-9.7-1.29-19.46-2.24-28.93-4.89-1-.29-2.55.13-2.45-1.69.08-1.53,1.33-1.74,2.46-2,3.38-.75,6.82-1.28,9.9-3,11.38-3.81,18.48-11.84,22.68-22.81,3.43-8.94,4.19-18.46,5.7-27.76a152.45,152.45,0,0,1,19.61-54.69c9.5-15.92,17.29-33,18.75-52,1.11-1.89,1.85-3.63,4.58-4.45,3.4-1,4.23-4.71,3.05-7.88-1-2.85-3.93-1.49-6.11-1.39-1.71.07-1,2.84-3.07,2.82-.55-2.55-2.07-3.61-4.67-2.7l-.16-.06C413.31,92.79,410.63,94.46,408.83,94.2ZM97.5,460.92a8.6,8.6,0,0,0,5-2.34,5.57,5.57,0,0,1,4.36-1.69c8-.11,12.61-7.4,9.13-14.51-1.18-2.42-1.48-4.08-.2-6.68,2.72-5.5.15-9.05-6-9-1.6,0-3,.43-4.38-1.25-5.85-6.89-14.19-5.94-18.48,2.08a10.16,10.16,0,0,1-4.3,4.38c-7.14,4-7.32,14.19-.18,17.88,3,1.53,4.83,3.11,6,6.33S93,460.91,97.5,460.92ZM425,119a18.8,18.8,0,0,0,.1-10.69A13.9,13.9,0,0,0,425,119Z"/><path class="b" d="M386,314.59c12.66,4.37,21.08,19.64,18.53,34.58-1.39,8.16-3.08,16.53-12.18,20.2-1.47.6-1.28,1.67-1,2.87a3.57,3.57,0,0,0,3.12,3.22c5.31,1.16,10.72,2.09,15.54,4.84-.28,1.73-2.31,1.57-3.05,2.81-5.49-1.74-10.93-3.8-16.87-3a7.65,7.65,0,0,0-2.47-.27c-2.07.51-5.49-2-5.94,2.19-.38,3.59,1.4,5.14,5.28,5.36,4.24.25,8.72,0,12.65,2.29l-4.93,2.48-2.67-.39c-2.41-3-5.1-2.18-7.85-.59L384,393a23,23,0,0,1-1.14,9.27A15.11,15.11,0,0,1,381,396c1.61-2.31,1.16-3.71-1.77-4l-.28-1.95c1.32-2.31,2.11-4.44-1.68-5.06-.18-2-1-3.28-3.29-2.79l-1-.18c-1.78-.14-3.74.42-5.13-1.28a4.93,4.93,0,0,1,.11-.67,5.48,5.48,0,0,0,4.25-1.8L373,378l0,.06c1.7.36,2.67-.23,2.14-2-.64-2.19-.43-5.26-4.18-4.77-2.34-.35-4.16.74-5.91,2.08-7.52.59-3.46,5.25-3,8.64.6,2.67-1.57,5.94,1.74,8,2,7.78,4.58,15.47,5.89,23.36.75,4.54,2,6.06,6.31,4.59,1,.59,3.45-1.21,3,1.8-2.83,1-6.31,1.16-6.84,5.2l-4-1.95a74.52,74.52,0,0,1-2.14-7.66c-.66-3.72-1.71-4-4.5-1.39C349,425.63,348.11,446.13,359.67,459a32.44,32.44,0,0,0,45.71,2.92c12.7-11.3,16.36-32.54.46-48.78,1-1.7,3.29.87,4.18-1.23a36.4,36.4,0,0,1,5.43,44.52c-8.81,14.5-26.57,21.25-42.4,16.07-13.47-4.42-21.94-13.64-24.93-27.39-3.09-14.24,1.43-26.21,12.3-35.82,2.63-2.34,3.57-8.63,1-10.45-2.95-2.12-4.41,1.65-6.53,2.76-1.26.66-2.13,2-3.18,3.1-5.64,4.53-9,10.64-11.31,17.27a21.45,21.45,0,0,1-7.6,10.78c-3.28.87-4.18,3-4,6.32,1,19.67,9.67,35,26.32,45.4,14.85,9.31,30.83,10.33,47.37,5.19,1.66.41,3.85-.22,4.44,2.27-.58,3.16,1.94,1.89,3.09,1.92,6.45.14,12.91,0,19.36.09,1.73,0,3.79-.54,4.55,1.9a59.88,59.88,0,0,1-14.47.14H310l0-1.53c1.66-.87,3.5-.52,5.26-.52,12.3,0,24.61,0,36.92,0,2,0,4,.46,5.8-.84.58-.22,1.64-.4,1.66-.67.08-.94-.69-1.35-1.58-1.47l-10.89-6.59c-12.65-10.63-20.38-23.94-22.27-40.52-.4-3.51,1.07-7.73-3.27-10.15-.52-.29-.31-2.19-.16-3.31,2.6-19.83,12.19-35.29,29.05-46.13,3.31-2.12,8-3.24,5.84-8.94a2.43,2.43,0,0,1,.61-1.85c3.35-4,.71-7.64-.49-12.16-8.2,9-17.73,13.66-29.52,12.79-2.59-.19-2.32,1.94-2.45,3.47-.4,4.8-2.15,8.78-6.69,10.91-2,.94-1.8,2.64-2.06,4.18q-2.79,16.49-5.45,33c-.38,2.35-.82,4.77-2.85,6.17-2.29,1.57-2.92,3.78-3.67,6.22-4.2,13.78-12.47,19.8-26.83,19.82-8.66,0-17.32.06-26,.1-3.7-.41-4.48,3.06-6.51,4.87,1-3.45-1.39-4.47-3.88-4.82-2.24-.32-4.62-.63-6.84.41-5.94,3.51-12.18,6.5-18.18,9.84-13.61,7.55-26.77,8-40.19.15-1.71-1-3.21-2.31-5.39-2.29-5.82.05-11.64,0-17.46,0-1.11,0-2.56-.36-3.14.91s.64,2.1,1.31,3c11.12,14.82,26.06,22.42,44.48,22.64,8.8.1,17.5-1.26,25-6.67l5.07-2a9,9,0,0,1,5.1,1.1c-2.54,2.55-5.79,4-8.84,5.77-1.26,0-2,.55-2.69,2.24H240c1.79,1.32,3.85.84,5.81.84,16.47,0,32.94,0,49.42.05,1.62,0,3.51-.59,5,1.07-1.9,1.44-3.79.88-5.53.88-18.31.05-36.61,0-54.91.05-2,0-4-.47-5.81.83-3.31.07-6.62.21-9.93.19q-39.52-.25-79-.57L128,495.7c-1.62-1.12-3.48-.62-5.25-.78-3.54-.33-7.19.84-10.63-.81l60.32-1.4c-6.63-3.52-12.05-6.56-16.67-10.79a64,64,0,0,1-8.68-9.56c-3.9-5.37-7.86-10.63-15.12-11.79-1-.15-1.73-1.43-2.59-2.2-.06-5.45-1.23-11,.9-16.31,4.26-1.42,6.15-4.12,5.76-8.85s1.17-9.11,2.4-13.57c.33-1.2,1.24-2.53-.35-3.5s-4.82-.43-5.08-3.13,1.54-4.92,3-7.1l3.06,2.15c-.31,1.23-.63,2.45-.94,3.68.52,3,2.9,2.14,4.71,2.19,3.18.1,2.84,1.33,1.2,3.15a1.93,1.93,0,0,1-.77.28c-.35-.34-.88-.68-1,0-.06.48.48,1,.76,1.57-.74,3.31-1.32,6.67-2.27,9.92s0,4.52,3.25,4.37c0,.24,0,.48,0,.72-2,.48-2,2-1.8,3.59-.6,1.13-1.15,2.27-.31,3.52A81.71,81.71,0,0,0,142,456c-1.19,5.09,1.23,6.12,5.89,6.08q32.19-.31,64.37,0c4.88.05,6.87-1.27,5.66-6.17l.44-12c2.6-2,2.63-4-.08-6a.75.75,0,0,1-.33-.67c-1.65-2.1-4-1.28-6-1.29-20.77-.06-41.53,0-62.3-.08-2,0-4.5,1-5.51-2,4.63-.39,9.35.85,13.9-.81l1.15-1.2a2,2,0,0,0,.45-2.79C162,418.26,168.42,410.48,178,405c5-2.87,10.66-3.44,16.09-4.81.37,3.57-.87,7.22.51,10.75L195,413c-.33,1-.65,2-1,3-2.48,2-1.76,3.72.69,4.88a73.93,73.93,0,0,0,7.44,2.82c2,.69,4.59,2.06,5.51-.84.78-2.45-2.51-1.89-3.66-3.08l1-2.89,1,.29,2,.8c2.32,0,2.3-2,2.83-3.45,1.51-4.16,2.94-8.35,4.41-12.53l3.9.17c-1.8,4.33-.64,7.38,2.9,10.7,6.14,5.76,8.82,13.5,9.63,21.84.9,9.36.89,9.37,10.3,9.22a18.84,18.84,0,0,0,2-.22h2l2.16,0c3.59-3.73,2.95-10.91-1.11-12.57l-6.86-2.35c-5.83-4.84-8.89-11.14-9.79-18.57,2.79-1.73.52-5.31,2.66-7.28,1.27,6.47,2.44,12.92,5.78,18.8,3.48,6.12,9.19,4.92,14.6,5,5,0,4.22-4.18,4.88-8.26A38.62,38.62,0,0,1,260,422.2c1.37,4.61,3.4,5.77,7.87,4.55a4.86,4.86,0,0,0,3-2.37c.43-.69,1-1.91,2.26-1.06,3.72,2.44,3-.84,2.71-2.4a6,6,0,0,0-4.25-5c-4.71-4.08-10.94-3.17-16.72-4.56,1.32-1.91,3.05-1.13,4.29-1.73,2.74-1.33,6.85,1.73,8.46-1.77,1.31-2.85,1-6.45,1.42-9.72,2.16-9.91,1.4-19.89.74-29.86.95-2.69-1.42-6.14,1.93-8.27.63,2.06,1.69,4.1,1.81,6.18.2,3.59,2.31,3.79,5,3.79,17.76-.05,35.53.25,53.28-.14,8.68-.19,15.58-4.74,21-11.46,1.13-1.38,1.32-2.51.32-4-3.54-5.2-4-11.05-3.5-17.1-.62-6.41-5.74-8.92-10.49-11.19-11.26-5.38-22.56-2.78-33.73.8-1.29.41-2.51,1-2.46,2.65l-5.86,6.57c-1,0-1.9-.19-2.67.78-1.41,1.78-2.07.68-2.52-.82.36-.63.72-1.27,1.07-1.91,6.9-6,9.47-14.37,12.34-22.6,1.17-3.39,0-3.81-3.12-3.8-9.8,0-19.36-1.47-28.38-5.57.72-2.92,3.13-1.93,5-2.17,7.28,1.29,14.41,3.88,22,2.76,4.72,1,8.93,1.28,8.83-5.49a7.14,7.14,0,0,1,.5-1.86l.07-.1,1-1.11c6.55-5.32,10.93-4.5,14.76,2.74,0,2,.17,4,.07,5.94-.24,4.43,3.37,5.79,6.25,6.39,3.24.68,2.54-3,3.24-5,.19-.52,0-1.27,1.11-1.4.35,2.24.69,4.48,1,6.75,6.66-2.42,7.21-3.57,4.87-10.14-.26-.73-1-1.88.46-1.41,3.6,1.15,1.79-1.46,1.52-2.25A13.17,13.17,0,0,0,340,289c-2.37-3.16-5.78-4.9-9.24-6.43-8.23-3.64-17.25-4.41-25.8-6.9a7.7,7.7,0,0,0-2.07-1.28c-10.14-2.46-17.7-10.17-27.72-13.31-5.31-1.66-10.54-5-15.89-7.39-4.59-3.46-10.38-5.07-14.39-9.4l2.4-1.48c1.93-.66,3.12.85,4.5,1.63,17.81,10.06,36.54,18,56.66,21.8,14.34,2.71,28.9,3.4,43-2.25,2.5.08,3,1.25,1.8,3.32-3.08,1.74-6.52,2.27-9.9,3-1.13.25-2.38.46-2.46,2-.1,1.82,1.43,1.4,2.45,1.69,9.47,2.65,19.23,3.6,28.93,4.89a49.17,49.17,0,0,1,9.19,2.11c6.12,2.08,11.2,5.49,11.9,12.59.67,6.83-1.05,12.85-7.35,16.73a22.09,22.09,0,0,1-4.27.79c-2,0-3,.31-2.58,2.69s1.52,1.83,3.08,1.27A18,18,0,0,1,386,314.59ZM222.22,441.85l.15,10c0,.65,0,1.3.08,2,0,1.9-1.19,4.48.68,5.45,1.52.79,3-1.61,4.5-2.52,4.13-2.43,3.5-6.19,2.69-10-2.06-2.08-4-4.26-6.22-6.22C222.28,439,222,440.16,222.22,441.85ZM366,328.87l-.87,1.05a70.83,70.83,0,0,1,6.28,17.94c-2.77,10.09.57,16.19,9.78,16.62-4.69-5.65-6.57-12.09-8-18.7A62.37,62.37,0,0,1,374.76,326c.47-1.14,1.85-2,1.13-3.53-5.13,1.36-5.88,1.85-10,6.51Zm20.34-40.14c-2.43-2.4-5.05-4.26-9.35-3.43a13.74,13.74,0,0,1,5.69,5.17c.89,1.4.95,3.64,3.42,3.51l-.11,1c-.56.22-1.61.44-1.61.66,0,4.19-2,7.6-4.46,10.84,2.68,1.29,4.47.06,6.06-1.47,3.49-3.36.71-6.75-.07-10.12,1.41-.81,1.84,1.72,3.46.89C389.26,293.07,388.87,290.47,386.29,288.73Zm-33.24,19.4c2.94-6.9,1.11-13.27-5.67-16.94,2.56,5.48,6.47,10.06,3.34,15.75a16.35,16.35,0,0,1-5.94,4.08C349.16,312.44,351.55,311.4,353.05,308.13Zm11.75,47.69-5.52,1.43c1.83,2.72,2.08,5.41,2.57,8,.73,3.87,2.47,4.14,5.27,1.94C369.68,365,368.11,357.34,364.8,355.82ZM358,331.58c2.63-.17,2.17-1.85,1.71-3.52-1.17-4.23-2.63-8.41-3.44-12.72s-2.11-1.87-3.47-.5c-2.16.33-3.26,1.27-2.57,3.69,1,3.66,2.08,7.32,2.77,11.05S355.31,333.5,358,331.58Zm-1.11,5.27c-2.83.39-4.47,2.29-3.52,4.77,1.48,3.85-.16,9.35,5.37,11.19.59.2,1.48-.48,2.23-.76,2.37-.45,5.53,0,4.82-4.08.94-3.34-.34-6.45-1.15-9.54-.58-2.21-2.07-3.72-4.72-2.51A3.85,3.85,0,0,0,356.9,336.85ZM336.39,277c-.46-1.15-1.42-.91-2.32-.85l-2.36-.47c-6.69-2-13.26-4.77-21.69-4.14,3.69,2.9,7,2.49,9.93,3.53a78.91,78.91,0,0,0,8.95,2.18c4.5,1.66,8.94,3.57,12.38,7,2.21,2.2,4.48,3.22,7.5,2.67a19.75,19.75,0,0,1,7.06,5.18,26.34,26.34,0,0,1,2.79,12.87c-.05.83-.17,1.73.9,2,.77.17,1.69.41,2.26-.4s-.18-1.47-.51-2.18c-1.85-3.95-2.83-8-1.4-12.35,2.53-5.18,6.85-7.77,12.59-8.46-3.35-.75-6.58-1.08-9.8-1.49-3.44-.45-6.87-1-10.31-1.47Zm47.3,73.44c-1.65-7.18-2.41-14.39-.62-21.67.51-2.08,1.28-4.09,1.79-6.17a2,2,0,0,0-1.23-2.44c-1.35-.5-1.71.68-2.11,1.52-4.31,9.13-6.16,18.5-2.64,28.36,1.72,9.2,7.93,16.21,12.92,14.34C387.5,360.63,385.66,355.51,383.69,350.45ZM317.1,374.19l-24,0c-5,0-9.94-.1-14.91-.12-.93,0-2-.3-2.67.74-1.24,2,3.1,10.87,5.5,10.83,11.07-.17,22.15.8,33.22-.28,4.45-1,5.7-4.28,6.2-8.3C320.76,374.17,319.6,373.52,317.1,374.19ZM190,412.81c.46.53,1,1,1.63.36a1.08,1.08,0,0,0,.24-.89c-.3-.95-1-.53-1.6-.35.16-.64.36-1.27.48-1.92.28-1.41,1.81-3,.76-4.15-1.23-1.35-3.2-.18-4.67.26-10.9,3.24-18.52,10.15-22.31,20.93-.63,1.81-3.24,4.69.42,5.74,2.63.75,6.27,1.81,7.32-3.15.9-4.31,3.88-7.57,7.05-10.63S186.65,415.32,190,412.81Zm92.85,34.81q-21.94.17-43.89.34c-1.84,0-4-.73-4.15,2.63-.11,3.52,2.06,3.12,4.22,3.12q20.22,0,40.43,0c2.66,0,5.31-.13,7.68-1.58,6.52-2.1,9.43-7.42,12-13.15,1.73-3.86.25-4.54-3.34-4.37-2.5.12-2.92,1.78-3.53,3.47A15,15,0,0,1,282.8,447.62Zm62.9-53.93c-11.43,8.29-16.77,20.19-19.64,33.48-.7,3.24,1.56,3.4,3.5,2.33a12.83,12.83,0,0,0,6.27-7.37c2.72-8.72,7.71-15.92,14.14-22.23,2.78-1.95,5.56-3.89,8.32-5.85,3-2.1,1.67-4.69.51-7-1.38-2.74-3.45-1.1-5-.14C350.84,388.81,347.53,390.39,345.7,393.69Zm53.25-58c0-5.11-3-8.57-6.49-11.75-1.38-1.27-2.65-1.43-3.3.75-5,11.81-3.29,23,3.36,33.62,1.87,3,3.31,3.12,4.9-.35C400.73,350.73,400.41,343.29,399,335.73Zm-100.77,84.2c-.57,2.28-2.43,1.86-4,1.88-3.66,0-7.31,0-11,0-1.29,0-2.82-.24-3,1.69-.29,2.65-2.26,4.21-4.76,6.35h25.72c3,0,4.55-1.64,5-4.5.26-1.8.5-3.61.76-5.41l4-25.09c1.3-3.75.34-5.33-4-5.19-8.45.29-16.91.1-25.36.09-6.88,0-6.84,0-7.72,7-.4,3.29-1.08,6.54-1.53,9.82-.18,1.28-.58,3.39,0,3.78,5,3.28,7.54,11.18,15.71,8.37C291.35,419.62,295,417.87,298.18,419.93Zm-81.9-7c-4.43,9.58.66,20.06,11.42,24.29A32.55,32.55,0,0,0,216.28,412.93ZM374.51,300.09c.12-2-.51-3.54-2.13-3.86-2.23-.44-3.29,1.24-3.76,3.12-1.37,5.37-1.91,10.8-.1,16.16.46,1.35-.77,4.34,2.3,3.76,2.27-.44,4.81-1,4.24-4.77C374.33,309.63,373,304.7,374.51,300.09Zm-191.93,133c4.48,1.46,6.29-1.45,7.89-5.95,1.34-3.77-1.26-5.68-2.76-7.7-.86-1.16-3.35,1.07-4.9,2.2a20.9,20.9,0,0,0-6.3,8.11c-1.22,2.54-.61,3.68,2.31,3.36C179.8,433,180.8,433.07,182.58,433.07Zm84.32-1.83c-12.81-.43-12.81-.43-12.46,9.51,0,.33-.14.7,0,1,1.42,4,4.75,1.45,7.16,2,1.76.41,2.82-.33,2.37-2.48C263.15,437.49,264.5,434.23,266.9,431.24ZM331.45,314.1c1.16,2-.29,5.09,2.54,5.72,4.84,1.08,9,3.56,13.47,6C345.88,314.67,345.88,314.67,331.45,314.1ZM275.27,443.81c2.57-.19,5.68,1.08,5.52-3.48-.16-4.28-2.15-5.82-6.23-5.73-3.43.07-6.73.46-6.53,4.76C268.24,444,272.08,443.77,275.27,443.81Zm-67.8,22.73H182.12C190.63,470.77,199.12,471.08,207.47,466.54Zm117.3-156.49c-4.13-.41-7.91.19-11.55-1-1.05-.35-2.69-.73-3.2,1.22-1,3.74-2,7.46-3.06,11.44,3.81-.28,6.37-.86,6.65-5.19.18-2.85,2.53-4.35,5.64-4.45C321,312,323.29,313,324.77,310.05Zm54.48-9.49c1.46-5.56.23-8.81-3.31-11.07a7.4,7.4,0,0,0-9.27.52c-2.59,2.15-4.35,4.8-2.42,8.95,1.47-4,3.41-6.84,7.47-7C376.52,291.79,377.84,295.52,379.25,300.56ZM322,299.8c-.13-1.41-.1-4.52-3.7-4.56-3,0-4.88,2.27-5,5.12-.1,3.22,2.37,4.35,5.26,4.67C321.67,305.38,322,303.4,322,299.8Zm56.22,68.91c-.59,6.36,3,6.22,6.93,6,1.91-.13,2.2-1,1.91-2.52C385.86,365.88,381,370.83,378.17,368.71ZM137.35,443.86c-.83.09-1.37,0-1.73.22-2.18,1.26-3.59,11.29-1.62,12.46,1.5.89,3.33.88,3.35-1.74C137.37,451.2,137.35,447.6,137.35,443.86Zm72.09-10.33c1.11-2.15,4.52,1.83,4.75-2,.12-1.9-1.66-5.58-2.77-4.94-2.46,1.42-7,1.29-7,5.14C204.43,434.63,207.65,432.18,209.44,433.53Zm-16.71-.69c3.62.25,6.86,1.36,7.85-3.29.66-3.13-2.09-3-3.34-3.07C192.74,426.24,194.51,430.49,192.73,432.84ZM322.52,319.1c1.51-.7,5.16,1.14,5.12-1.24-.06-2.94-3.68-1.16-5.7-1.61a9.37,9.37,0,0,0-2.48,0,1.88,1.88,0,0,0-1.95,1.85c0,1.41,1.17,1.29,2.18,1.2Zm40.86,2.78a18.24,18.24,0,0,0,.27-9.25,1.82,1.82,0,0,0-2.44-1.68c-1.46.3-1.28,1.38-1,2.28C361.11,315.79,361,318.68,363.38,321.88ZM284.8,441.12c2.93-1.79,3.85-4.07,3.71-6.48-.06-1-2.28-.91-3-.4C282.75,436.13,285.7,438.44,284.8,441.12Zm97.61-52.35.12.37a4.65,4.65,0,0,0,.63-.32,1.78,1.78,0,0,0-.12-.35Z"/><path class="c" d="M353.21,267.34c1.18-2.07.7-3.24-1.8-3.32,10.76-4.79,18.6-12.16,21.28-24.08a19.82,19.82,0,0,0,1.7-7.26c1.36-7,2.77-14,4.07-21,1.15-6.19,3.16-12.21,3.59-18.54a87.55,87.55,0,0,0-.05-30.12,47.08,47.08,0,0,0-.61-4.93c-3.58-15.35-10.06-28.83-21.95-39.91a63.13,63.13,0,0,0-27.29-15.07c-6.73-3.19-14.11-3.78-21.27-5.24a140.39,140.39,0,0,0-11.42-18.18l-.78-1.11-.21-.26a.63.63,0,0,0-.49-.61l-.57-.79a10.57,10.57,0,0,0-3.22-4.15l.05.23-.82-1.39-.36.13.35-.16-1.15-1.24c-3.75-2-5.05-6.32-8.37-8.87-4.09-3.15-7.84-6.53-13.53-5.38-3.67-.53-6.46.46-9.36,3.18-6.72,6.3-9.85,14.45-12.85,22.67-6.63,18.17-10,37.17-13.67,56.08-2.37,6.84-6.13,13-9.24,19.52s-7.18,12.89-9.22,20.06a39.31,39.31,0,0,0,8,45.88c7.26,7.07,16,12.35,23.28,19.32l-2.4,1.48c-3,.29-4.68-5.09-8.12-2.08a72.54,72.54,0,0,0-6.57,7.3,17.94,17.94,0,0,0-2,2.83c-5.52,9.77-12.57,18.46-19.18,27.47-13.12,17.88-22.05,37-14.77,60l-3.78,2.1a13.46,13.46,0,0,0-2.17-6.22c-.22-2.44-.41-4.88-.67-7.31s-1.39-4-4.19-3.35c-.17-2.35-2.17-2.62-3.78-3.36a36.9,36.9,0,0,1-20.23-23.23c-3.11-10.16-2.51-21,.73-31.46l-.06,0c.64.07.89-.27.87-.87,2.44-5.81,6.48-10.39,11.15-14.5,1.53-.82,3.87-1.29,3.67-3.34-.17-1.72-2.45-1.88-3.93-2.44a30,30,0,0,0-9.9-1.69c-9.33-1-17.74,1-24.85,7.41-1.32.61-3,.91-3.91,1.89-8.2,8.43-13.7,18.18-14.29,30.23-3.54,20.73,10.83,44.79,31.89,53.39,12.58,5.13,25.68,6.4,39.1,5.33-1,1.84-2.83,1.44-4.45,1.46-3.66,0-7.32,0-11,0-1.78,0-3.83-.39-4.42,2.14-1.16-.05-2.33,0-3.48-.15-9.09-1.1-9.09-1.11-11.22,7.9L152.12,356c0-3.31-.63-6.81.26-9.87,1-3.3-.56-4-2.82-4.94-19.69-8.53-31.22-23.48-34.68-44.61-.46-2.82-1.48-3.86-4.43-3.88-9.3-.07-18.58-.48-27.87-.72-2.37-.07-4.73,0-7.1,0l0-2.35H94c6.7-.09,13.48.83,20-1.63.84-12,3.88-23.28,12-32.68,12.33-14.35,30-19.24,47.86-13.17,2.87,1,5.74,2,6.29,5.63s-2,5.27-4.46,7.11c-11.79,8.81-14.91,21.15-13.3,34.92,1.55,13.32,8.21,23.39,20.88,28.86,1.82.78,4,2.42,4.55-1.55,2.06-15.87,9.45-29.47,19.26-41.61,7.57-9.37,13.62-19.67,20.47-29.46,2-2.84,6.59-5.06,6-7.95-.55-2.71-4.71-4.78-7.42-6.95-15.05-12.05-21.19-27.38-16.9-46.4.8-3.56-.38-4.34-3.61-4.4-12.32-.25-24.64-.67-37-1.05a4.88,4.88,0,0,1-3.37-1.14c6.45-.29,12.89-.62,19.33-.86q11.73-.44,23.47-.71c2.17-.06,3.56-.59,4.6-2.84,3.7-8,7.23-16.15,11.71-23.71,6.79-11.48,7.78-24.46,10.85-36.92.63-2.54-.35-3.33-2.7-3.26-2.65.09-5.3.1-8,.14-11.81-1.33-23.67-1.2-35.52-1.22-1.47-3.24,1.49-1.57,2.09-1.59,13.31-.51,26.63-1.1,39.95-1.16,4.93,0,6.19-2.09,7.33-6.51,3.41-13.15,7-26.37,14.86-37.79C262,49,273.06,47.37,285.09,57c10.84,8.69,18.36,20.12,25.42,31.83a10.14,10.14,0,0,0,8.16,5.37,78.34,78.34,0,0,1,32.54,12,9.9,9.9,0,0,0,10.7.68c12.17-5.84,24.56-11.09,38.08-13l8.81.37,0-.06,4.74,2.19.16.06c4.16,3.58,5.66,8.37,6.22,13.6-1.46,19.06-9.25,36.11-18.75,52a152.45,152.45,0,0,0-19.61,54.69c-1.51,9.3-2.27,18.82-5.7,27.76C371.69,255.5,364.59,263.53,353.21,267.34Zm22.71-136.29c4.52,9.14,8.48,18.49,10.39,29.93,5.2-10,10.46-18.55,13.55-28.14,2.91-3,3.54-7,4.73-10.66.69-2.15,1.64-4.84-.35-6.54s-4.41-.66-6.63,0c-7.14,2.21-13.69,5.77-20.49,8.76C373,126.25,372.67,128.17,375.92,131.05Zm-9.81-20.56c-5.58,1.5-5.78,2.14-1.95,6a14.21,14.21,0,0,1,2.37,2.55c2.48,4.3,5.39,3.49,9.1,1.46,6.81-3.72,13.83-7.19,21.41-9,3.76-.92,8.13-1.65,11.19,1.59,2.87,3,1.62,6.89.5,10.41a74.32,74.32,0,0,1-3.22,8.86c-5.44,11.7-11.07,23.31-17.63,34.45-1.34,2.29-1.91,5.21.28,6.59,2,1.26,2.35-1.81,3.3-3.13.67-.92,1.73-1.61,2.24-2.59,8.41-16.26,17.28-32.35,21.07-50.54.13-1.16.3-2.31.38-3.47,1.08-15.21-9.35-17.68-19.58-14.14-2.79,1-6.11,1.2-9.06,2.12C379.41,103.81,372.09,105.64,366.11,110.49Z"/><path class="c" d="M139.1,408.06,136,405.91c.19-1.62,1.23-2.76,2.21-3.93,5.4-.34,5.48-6.24,8.91-8.75.92-.68-1.37-1.05-2.34-1.3l-2.79-.21c-.76-1.18-1.94-2.13-2-3.69,1.94-.09,3.88-.22,5.82-.27,3.25-.08,5.66-1.22,6.18-4.8,1.94-.39,2-1.88,2-3.42s-.08-3,1.82-3.57c.38,1.82-.21,3.85.91,5.75A99.66,99.66,0,0,1,187,370l16.81,0c2.18,0,4.48.23,4.34-3.1-.12-2.88-1.46-5.07-4.33-5-4.89.11-9.88-.84-14.68.88-.78-1.19-2-.92-3.12-.92q-14.53,0-29.06.11c-.51-3.14,2-1.92,3.16-1.92,12.31,0,24.61,0,36.92.25,2.34.06,3.07-.42,2.85-2.58.4-1.69-1.36-2.39-1.7-3.73,3.19-.67-1-3.25,1.1-4.21q14.34,13.74,28.67,27.47a7.59,7.59,0,0,1,2.37,4.24c1,5.24,2.09,10.46,1.83,15.84-1,2.08,1.22,3.65.89,5.62-2.14,2,.13,5.55-2.66,7.28l-4.53-4.83c.3-2.73-1.12-4.44-3.52-5.23-1.54-.5-3-.08-3.26,1.94l.09,0-3.9-.17a31.8,31.8,0,0,1,1.5-4.64c2.07-4.2,1.14-6.71-3.75-7.26l-3.89-1.31c-6.13-2.37-6.1-2.36-8.08,3.46-2.13,6.26-4.32,12.49-6.49,18.74-1.38-3.53-.14-7.18-.51-10.75l.42-1.41c.16-.33.33-.67.5-1,1.06-3.43.66-4.86-3.73-4.35a46,46,0,0,0-28.46,13.95c-2.2,2.24-4.49,4.39-6.74,6.58-4.12.58-7.62,3.55-12,3.11,1.64-1.82,2-3.05-1.2-3.15-1.81-.05-4.19.78-4.71-2.19,9.12,3,15.87-.58,21.87-7.35a42.49,42.49,0,0,1,28.8-14.62c9-.81,9-.69,8.42-9.6-.43-6.57-.43-6.6-7.13-5.91-2.13.21-4.31.33-6.21,1.52-10.59,1-19.3,6.35-27.94,11.89l-.8.54a6.47,6.47,0,0,1-3.08,2.81c-.21-.84.25-2-1-2.32-.16,0-.58.29-.62.5-.25,1.31.75,1.52,1.66,1.8-3.35,4.33-7.71,7.89-10,13Zm70.77-32.87c-3.36-.29-7.88-3.68-8.29,3.48-.25,4.34,3.28,3.59,5.51,4.67,3.53,1.19,6.81,3.24,10.71,3.19,2.17,1.87,4.37,3,6.6.12,2.78-3.6,1.46-5.31-5.19-6.7-2.11-1.8-4.87-2.09-7.3-3.15l-.91-.64Zm18.48,20.74c-.83-1.4,1-4.2-1.81-4.18-1.92,0-4.37,1.2-4.43,3.79s2.34,4.2,4.41,4.39C229.55,400.2,227.46,397.24,228.35,395.93Z"/><path class="c" d="M394.62,392.14l4.93-2.48c3.53.58,6.62,3,10.4,2.53,4.31,3.82,7.77-.91,11.68-1.15,7.93,7.49,14.65,15.84,18.27,26.32,9.42,27.25-.87,56-25.44,71.1-.85.52-1.66,1.1-2.49,1.65l-4.9,1.89-.13-.06c-.59-2.49-2.78-1.86-4.44-2.27l6.71-3.56c10-4.92,17.89-12.06,22.74-22.28L433,462a1.58,1.58,0,0,0,1-1.76c2.06-3.13,3-6.68,3.7-10.29,4.37-21.16-1.55-39-17.17-53.84-2.11-2-3.85-2.17-5.94-.34C407.32,397.83,401.1,394.28,394.62,392.14Z"/><path class="c" d="M97.5,460.92c-4.51,0-7.73-1.48-9-4.76s-3.1-4.8-6-6.33c-7.14-3.69-7-13.86.18-17.88a10.16,10.16,0,0,0,4.3-4.38c4.29-8,12.63-9,18.48-2.08,1.42,1.68,2.78,1.28,4.38,1.25,6.13-.09,8.7,3.46,6,9-1.28,2.6-1,4.26.2,6.68,3.48,7.11-1.16,14.4-9.13,14.51a5.57,5.57,0,0,0-4.36,1.69A8.6,8.6,0,0,1,97.5,460.92Zm14.38-17.41-1.6-1.89c-2.22-2-1.2-3.7.36-5.5,1.07-1.24,2.59-2.89,1.72-4.35-1.1-1.85-3.29-.8-5-.31-2.17.64-4.35,1.57-5-1.77-.46-2.55-1.57-4.45-4.36-4.59-3.29-.16-6.55,1.35-7.19,4.25-.91,4.11-3.49,5.52-6.74,6.76-3.79,4.16-3.67,6.42.56,10.05,4.22.84,7.46,2,7.48,7.64,0,3,5.15,4.25,7.12,1.82,2.39-2.95,4.06-5.58,8.39-2.85,1.3.82,3-.81,4-2.24,1.45-1.81,1.86-3.73.58-5.81Z"/><path class="d" d="M145.08,496.4q39.53.3,79,.57c3.31,0,6.62-.12,9.93-.19.66.06,1.32.19,2,.19q89.28-.17,178.55-.38a38.85,38.85,0,0,0,4.89-.6,59.88,59.88,0,0,0,14.47-.14l17,.27c-11.83,5-23.92,5.21-36.25,2.17a25.08,25.08,0,0,0-5.95-.34q-132.81,0-265.62,0h-5.39l-.05-.68Z"/><path class="b" d="M140.05,388c0,1.56,1.22,2.51,2,3.69-7.5.49-9.44-1-9.14-8.33.18-4.5-2.29-9.65,2.38-13.4,3.24-.91,5.15-2.45,2.78-6,2.16-.19,4.89.58,5.06-3a6.22,6.22,0,0,1,4.7-1c3.21.47,4.56-.88,4.31-4l3.21-2.09c1.2.77.67,2,.74,3,2.56,2,5.52.77,8.29,1l1.45,0,33.63,0,.21-.18.27,0c.22,2.16-.51,2.64-2.85,2.58-12.31-.28-24.61-.28-36.92-.25-1.17,0-3.67-1.22-3.16,1.92,0,.81.18,1.69-.84,2.09l-4.39.08c-2.09.43-5-1.58-6.07,1.93-1.6,3.11-4.23,5.28-6.83,7.49-4.07,1.84-4.39,9.3-.6,13.67Z"/><path class="c" d="M138.05,364c2.37,3.53.46,5.07-2.78,6,2.45-2.34,1-2.82-1.37-2.9-9.3-.3-18.6-.65-27.9-.93-2.86-.09-5.72,0-8.58,0v-1.42L126,363.62C130,364.19,134.07,363,138.05,364Z"/><path class="c" d="M450.93,496.12l-17-.27c-.76-2.44-2.82-1.89-4.55-1.9-6.45-.05-12.91.05-19.36-.09-1.15,0-3.67,1.24-3.09-1.92l.13.06a2.16,2.16,0,0,0,2.12,1l49.79.65,21.39.57c-4.18,1.69-8.74.16-13,1.53Z"/><path class="d" d="M420,110.05c-.56-5.23-2.06-10-6.22-13.6,2.6-.91,4.12.15,4.67,2.7,2.11,0,1.36-2.75,3.07-2.82,2.18-.1,5.07-1.46,6.11,1.39,1.18,3.17.35,6.85-3.05,7.88C421.8,106.42,421.06,108.16,420,110.05Z"/><path class="d" d="M459,493.63,409.19,493a2.16,2.16,0,0,1-2.12-1l4.9-1.89c1,2.61,3.3,1.77,5.14,1.78,12.76.06,25.53,0,38.3.11C456.6,492,459,490.52,459,493.63Z"/><path class="b" d="M421.63,391c-3.91.24-7.37,5-11.68,1.15,1.36-.39,3-.05,4-1.4,2.19-.55,4.33-1.1.9-3.22q-2.65-1.65-5.32-3.29l3.48-2.35,1.09.46,1.05.6a.67.67,0,0,1,.75.47c0,4.1,5,3.53,6.12,6.59Z"/><path class="c" d="M112.12,494.11c3.44,1.65,7.09.48,10.63.81,1.77.16,3.63-.34,5.25.78a160.13,160.13,0,0,1-30.58-1.59Z"/><path class="d" d="M189,108.74c11.85,0,23.71-.11,35.52,1.22q-15.47.06-30.94.09C191.93,110.06,190.19,110.31,189,108.74Z"/><path class="b" d="M144.82,391.93c1,.25,3.26.62,2.34,1.3-3.43,2.51-3.51,8.41-8.91,8.75Z"/><path class="d" d="M386,314.59a18,18,0,0,0-3.79.52c-1.56.56-2.64,1.05-3.08-1.27s.57-2.71,2.58-2.69a22.09,22.09,0,0,0,4.27-.79C386,311.77,386,313.18,386,314.59Z"/><path class="d" d="M425,119a13.9,13.9,0,0,1,.1-10.69A18.8,18.8,0,0,1,425,119Z"/><path class="e" d="M467.41,495.73c4.22-1.37,8.78.16,13-1.53a7.5,7.5,0,0,1,5.68,1A101.45,101.45,0,0,1,467.41,495.73Z"/><path class="d" d="M138.05,364c-4-1-8,.18-12-.39,1.08-2,3-1.61,4.74-1.64,4.14-.07,8.3.26,12.35-1C142.94,364.59,140.21,363.82,138.05,364Z"/><path class="d" d="M114,288c-6.51,2.46-13.29,1.54-20,1.63.84-1.53.84-1.58,2-1.58Q105,288,114,288Z"/><path class="d" d="M130.28,442.06c-2.13,5.34-1,10.86-.9,16.31-.8.61-1.25.19-1.26-.59-.05-4.32,0-8.63,0-12.94C128.09,443.35,128.62,442.25,130.28,442.06Z"/><path class="c" d="M422,390.05c-1.11-3.06-6.12-2.49-6.12-6.59C418,385.57,423,385.07,422,390.05Z"/><path class="d" d="M408.8,94.26,400,93.89c2.06-2.39,5.16-1.72,7.75-2.36C409.78,91,408.56,93.25,408.8,94.26Z"/><path class="c" d="M413,381.93l-3.48,2.35-2.61-1.17c.74-1.24,2.77-1.08,3.05-2.81A5.08,5.08,0,0,1,413,381.93Z"/><path class="d" d="M413.57,96.39l-4.74-2.19C410.63,94.46,413.31,92.79,413.57,96.39Z"/><path class="c" d="M415.13,383l-1.05-.6Z"/><path class="f" d="M247.28,242.84c-7.31-7-16-12.25-23.28-19.32a39.31,39.31,0,0,1-8-45.88c3.14,0,6.3.12,9.43-.13,10.59-.82,19.25,2.31,26,11,2.81,3.63,5.94,7.39,10.6,9.12l2,1.72,1.05.66,0-.1c.06,1.41,1.06,2.32,1.73,3.44,4.57,7.7,11.61,13.24,17.31,20-3.2,6.05-3.13,9.79.25,13,3.57,3.43,8.67,3.66,14.16.68,1.72-.93,3.32-2.17,5.43-2.12,5.29,4,11.78,5.19,17.89,7.09a80.05,80.05,0,0,0,31.34,3.17c6.9-.62,13.21-2.83,19.54-5.24C370,251.86,362.17,259.23,351.41,264c-14.07,5.65-28.63,5-43,2.25-20.12-3.8-38.85-11.74-56.66-21.8C250.4,243.69,249.21,242.18,247.28,242.84Z"/><path class="g" d="M259.27,253.72c5.35,2.41,10.58,5.73,15.89,7.39,10,3.14,17.58,10.85,27.72,13.31A7.7,7.7,0,0,1,305,275.7c-.65,4.38-4,7.88-4.09,12.44-1.39,1.78-.37,3.91-.84,5.83-6.89-1-13.72-2.22-20.32-4.61-11.93-4.31-23.36-9.48-33-18-1.45-1.29-3.43-1.88-3.48.81-.05,3-.68,6,.08,9.25,1.65,7.23,4,13.94,8.43,19.91.42.55.18,1.6.25,2.42-2.17,9.32-3.57,18.69-1.91,28.26-1.87,1.08-5-.81-5.86,1.56s2.18,3.45,3.6,4.92c7.59,7.81,14.41,16.23,17.3,26.87,2.53,9.32,2.63,19.06,2.91,28.7-1,1.69-2.32.51-3.5.31-4.83-.8-9.42-3.25-14.52-2.07l0-.42c.34-8.86-1.28-17.48-8.76-22.75C229.72,361,222.64,350,218,337.24c-5.23-14.42-5.31-29.25-2.2-44.13,3.37-16.12,11.28-28.79,27.15-35.44C248.22,255.46,253.87,255.19,259.27,253.72Z"/><path class="a" d="M221.44,490.82c3.06-1.75,6.31-3.22,8.85-5.77A42.21,42.21,0,0,0,244,470.62a16.3,16.3,0,0,0,4-6.67c1.67-1.67,2-4,2.94-6,8.66,0,17.32-.09,26-.1,14.36,0,22.63-6,26.83-19.82.75-2.44,1.38-4.65,3.67-6.22,2-1.4,2.47-3.82,2.85-6.17q2.67-16.51,5.45-33c.26-1.54.07-3.24,2.06-4.18,4.54-2.13,6.29-6.11,6.69-10.91.13-1.53-.14-3.66,2.45-3.47,11.79.87,21.32-3.75,29.52-12.79,1.2,4.52,3.84,8.16.49,12.16a2.43,2.43,0,0,0-.61,1.85c2.14,5.7-2.53,6.82-5.84,8.94-16.86,10.84-26.45,26.3-29.05,46.13-.15,1.12-.36,3,.16,3.31,4.34,2.42,2.87,6.64,3.27,10.15,1.89,16.58,9.62,29.89,22.27,40.52.52,2,.56,3.63-2.3,3.61s-6,.28-9,.27q-45.87-.11-91.76-.25c-1.09,0-2.77-.73-3.24,2h27.46c21.12,0,42.23-.05,63.35.11,1.33,0,4.39-2,4.29,1.9l-110.37.14C224.11,492.08,222.59,492,221.44,490.82Z"/><path class="h" d="M259.27,253.72c-5.4,1.47-11,1.74-16.32,4-15.87,6.65-23.78,19.32-27.15,35.44-3.11,14.88-3,29.71,2.2,44.13C222.64,350,229.72,361,241.23,369.1c7.48,5.27,9.1,13.89,8.76,22.75-6.36.45-12,3.16-17.8,5.47.26-5.38-.83-10.6-1.83-15.84a7.59,7.59,0,0,0-2.37-4.24q-14.36-13.71-28.67-27.47L198.05,348c.19-1.76-.79-3-1.94-4.12a5.24,5.24,0,0,0-1.88-4c-7.28-23,1.65-42.16,14.77-60,6.61-9,13.66-17.7,19.18-27.47a17.94,17.94,0,0,1,2-2.83,72.54,72.54,0,0,1,6.57-7.3c3.44-3,5.14,2.37,8.12,2.08C248.89,248.65,254.68,250.26,259.27,253.72Z"/><path class="d" d="M405.84,413.15c15.9,16.24,12.24,37.48-.46,48.78A32.44,32.44,0,0,1,359.67,459c-11.56-12.88-10.64-33.38,1.85-45.11,2.79-2.61,3.84-2.33,4.5,1.39a74.52,74.52,0,0,0,2.14,7.66c.14,2.56.66,5.23,3,6.4,2.62,1.29,3.42,3.28,3.89,5.81a39.09,39.09,0,0,0,1.51,5.74c1.53,4.4,4.93,6.1,9.4,4.83,4.08-1.17,6-4.37,5.2-8.71-.72-3.71-1.53-7.4-2.3-11.1,2.8-2.1,3.16-4.83,2.2-8-.91-3-1.53-6.12-2.57-9.09-1.18-3.41.28-3.73,3-3A34.94,34.94,0,0,1,405.84,413.15ZM409,445c4.37-8.41,2.05-20.1-5.05-23,4.67,7.28,5.13,15.08,5.12,23l-.18.07Zm-49.4-16.4c-4.87,9.18-3.47,17.76,3.52,24.81C360.19,445.88,358,438.21,359.6,428.62Zm6.44,4.71c-3,6.28-1.65,12.61,3.23,15.06C367.8,443.32,366.41,438.47,366,433.33Zm35.9,9.22c2.83-6.31,2.39-9.37-1.63-13.37A28.32,28.32,0,0,0,401.94,442.55Z"/><path class="i" d="M432,463.83c-4.85,10.22-12.7,17.36-22.74,22.28a29.8,29.8,0,0,0-3.42.37,66.2,66.2,0,0,1-24.22,1.19c-26.82-3.93-48.58-26.46-48.75-54.91a21.45,21.45,0,0,0,7.6-10.78c2.34-6.63,5.67-12.74,11.31-17.27,2.07,1.84.69,3.25-.63,4.59-12.06,12.18-14.59,38.51-1.71,54.32,10.9,13.39,25.2,19.78,41.86,16.68,21.82-4.06,36.43-22.47,35.93-44.4-.47-21.33-19.14-41.7-42.33-41.87l-.9-1,.15-1.86,7.85.58,2.67.38c6.48,2.15,12.7,5.7,19.94,3.59,3.5,3.95,7.61,7.32,10.79,11.6,9.45,12.7,12.52,27.09,11.56,42.6-2.4,3-2.63,6.66-2.94,10.27a1.58,1.58,0,0,1-1,1.76Z"/><path class="e" d="M384.85,394c23.19.17,41.86,20.54,42.33,41.87.5,21.93-14.11,40.34-35.93,44.4-16.66,3.1-31-3.29-41.86-16.68-12.88-15.81-10.35-42.14,1.71-54.32,1.32-1.34,2.7-2.75.63-4.59,1-1.06,1.92-2.44,3.18-3.1,2.12-1.11,3.58-4.88,6.53-2.76,2.55,1.82,1.61,8.11-1,10.45-10.87,9.61-15.39,21.58-12.3,35.82,3,13.75,11.46,23,24.93,27.39,15.83,5.18,33.59-1.57,42.4-16.07A36.4,36.4,0,0,0,410,411.92c-5.52-4.76-11.35-9.32-18.7-10.31C386.24,400.93,385.18,398.11,384.85,394Z"/><path class="j" d="M297.21,336.09l5.85-6.56c10.93-4,22-5,33.12-1,4.81,1.75,9.44,4.09,11.86,9.12-.71,3.28,1.31,6.95-1.61,10-4.9,5.05-10.91,8.39-17.22,11.19-7.7,3.41-15.75,4.15-23.77,1.41-9.32-3.19-11.95-10.66-11.75-19.69Z"/><path class="k" d="M250.1,332c-1.66-9.57-.26-18.94,1.91-28.25l1.18-1.19c11.46,8.72,24.23,13.69,38.78,13.55,3,0,3.82,1.22,3.54,4.38-.41,4.66-1.84,9.08-2.42,13.67-.35.64-.71,1.28-1.07,1.91a84.27,84.27,0,0,1-20.28,14c-1.28.61-2.75,2.31-4.23,0-4.21-6.54-10.48-10.84-16.71-15.15C250.57,333.93,250.33,333,250.1,332Z"/><path class="l" d="M293.69,340.54c-.2,9,2.43,16.5,11.75,19.69,8,2.74,16.07,2,23.77-1.41,6.31-2.8,12.32-6.14,17.22-11.19,2.92-3,.9-6.68,1.61-10l1.71-.41c-.54,6.05,0,11.9,3.5,17.1,1,1.48.81,2.61-.32,4-5.46,6.72-12.36,11.27-21,11.46-17.75.39-35.52.09-53.28.14-2.73,0-4.84-.2-5-3.79-.12-2.08-1.18-4.12-1.81-6.18-.55-3.1.39-5.52,3.38-6.84C282.1,350.08,287.72,345.06,293.69,340.54Z"/><path class="e" d="M220.12,486c-7.47,5.41-16.17,6.77-25,6.67-18.42-.22-33.36-7.82-44.48-22.64-.67-.89-1.87-1.76-1.31-3s2-.9,3.14-.91c5.82,0,11.64,0,17.46,0,2.18,0,3.68,1.29,5.39,2.29,13.42,7.84,26.58,7.4,40.19-.15,6-3.34,12.24-6.33,18.17-9.84-.26,6.2-5.51,8.9-9.21,12.38-12.72,12-27.83,13.67-44,8.84-6.83-2-12.43-6.2-17.3-11.33-1.48-1.56-3.54-2.07-4.86-.82s.48,2.68,1.48,3.64c10.12,9.7,21.89,15.9,36.1,16.84A95.61,95.61,0,0,0,220.12,486Z"/><path class="i" d="M142,456a81.71,81.71,0,0,1,0-14.92l76-.19.38,3.05q-.23,6-.44,12Zm35.92-6v0c6.8,0,13.61,0,20.42,0,1.95,0,4-.23,4.16-2.53.17-2.52-1.89-3.33-4.05-3.34-13.45-.05-26.9,0-40.35,0-2.44,0-3.83,1.34-3.77,3.66.09,2.78,2.46,2.21,4.16,2.22C164.92,450,171.4,449.94,177.88,449.94Z"/><path class="h" d="M253.19,302.54,252,303.73c-.07-.83.17-1.88-.25-2.43-4.45-6-6.78-12.68-8.43-19.91-.76-3.28-.13-6.21-.08-9.25.05-2.69,2-2.1,3.48-.81,9.61,8.55,21,13.72,33,18,6.6,2.39,13.43,3.58,20.32,4.61.32,2.93,3.16,5.6.93,8.79-7.59,1.12-14.72-1.47-22-2.76-7.1-3-14.47-5.44-21-9.66-.89-.58-2.25-1.14-2.89.42-.4,1,.74,1.3,1.25,1.88C256.69,296.39,253.54,299,253.19,302.54Z"/><path class="f" d="M232.19,397.32c5.78-2.31,11.44-5,17.8-5.47l0,.42c0,4.46-.17,8.93,0,13.39.21,5.83,4.81,11.67,9.45,12,4.15.3,8.17-.77,12.16-1.76a6,6,0,0,1,4.25,5c.3,1.56,1,4.84-2.71,2.4-1.3-.85-1.83.37-2.26,1.06a4.86,4.86,0,0,1-3,2.37c-4.47,1.22-6.5.06-7.87-4.55a38.62,38.62,0,0,0-1.69-3.75c-.66,4.08.14,8.3-4.88,8.26-5.41,0-11.12,1.15-14.6-5-3.34-5.88-4.51-12.33-5.78-18.8C233.41,401,231.18,399.4,232.19,397.32Z"/><path class="i" d="M220.12,486a95.61,95.61,0,0,1-24.22,2c-14.21-.94-26-7.14-36.1-16.84-1-1-2.82-2.37-1.48-3.64s3.38-.74,4.86.82c4.87,5.13,10.47,9.29,17.3,11.33,16.19,4.83,31.3,3.17,44-8.84,3.7-3.48,8.95-6.18,9.21-12.38,2.23-1,4.61-.73,6.85-.41,2.49.35,4.9,1.37,3.88,4.82l-.51,1A65.54,65.54,0,0,1,225.19,484Z"/><path class="f" d="M253.19,302.54c.35-3.52,3.5-6.15,3.1-9.9,5.93,3.08,11.13,7.52,17.64,9.53,9,4.1,18.58,5.61,28.38,5.57,3.1,0,4.29.41,3.12,3.8-2.87,8.23-5.44,16.58-12.34,22.6.58-4.59,2-9,2.42-13.67.28-3.16-.5-4.41-3.54-4.38C277.42,316.23,264.65,311.26,253.19,302.54Z"/><path class="e" d="M332.82,432.76c.17,28.45,21.93,51,48.75,54.91a66.2,66.2,0,0,0,24.22-1.19,29.8,29.8,0,0,1,3.42-.37l-6.71,3.56c-16.54,5.14-32.52,4.12-47.37-5.19-16.65-10.44-25.29-25.73-26.32-45.4C328.64,435.75,329.54,433.63,332.82,432.76Z"/><path class="k" d="M300.86,288.14c.13-4.56,3.44-8.06,4.09-12.44,8.55,2.49,17.57,3.26,25.8,6.9,3.46,1.53,6.87,3.27,9.24,6.43-.68,7.75-5.06,10.24-13.87,7.91-3.83-7.24-8.21-8.06-14.76-2.74a1,1,0,0,0-1,1.11l-.07.1a5.2,5.2,0,0,0-3.68-1.29C301.88,294.76,300.3,292.51,300.86,288.14Z"/><path class="i" d="M288,418.77c-8.17,2.81-10.75-5.09-15.71-8.37-.59-.39-.19-2.5,0-3.78.45-3.28,1.13-6.53,1.53-9.82.88-7,.84-7,7.72-7,8.45,0,16.91.2,25.36-.09,4.32-.14,5.28,1.44,4,5.19a16,16,0,0,0-7.6,1.3c-6,0-11.92-.05-17.88.15-2,.07-5.54-1.13-5.59,1.28-.06,2.82,3.44,1.31,5.3,1.38,5.95.22,11.92.09,17.88.1-1.64,1.15-3.52.73-5.3.75-7.89.07-7.89.05-7.65,7.92-3.48.06-7,.11-10.44.2-1,0-2.24,0-2.25,1.32s1.16,1.45,2.18,1.48c3.15.1,6.3.16,9.45.23Z"/><path class="e" d="M142,456l75.92-.08c1.21,4.9-.78,6.22-5.66,6.17q-32.17-.36-64.37,0C143.19,462.1,140.77,461.07,142,456Z"/><path class="e" d="M194.5,398.79l-.42,1.41C188.65,401.57,183,402.14,178,405c-9.57,5.47-16,13.25-18.43,24.14l-.45,2.79-1.15,1.2-3-.4c-3.17-.68-4.07-2.23-3.15-5.59a44.39,44.39,0,0,1,3.52-9.19c.65-1.23,2-2.38.71-4,2.25-2.19,4.54-4.34,6.74-6.58a46,46,0,0,1,28.46-13.95c4.39-.51,4.79.92,3.73,4.35C194.83,398.13,194.66,398.46,194.5,398.79Z"/><path class="k" d="M271.64,415.89c-4,1-8,2.06-12.16,1.76-4.64-.32-9.24-6.16-9.45-12-.17-4.46,0-8.93,0-13.39,5.1-1.18,9.69,1.27,14.52,2.07,1.18.2,2.48,1.38,3.5-.31,1.08,1.17.72,2.71,1,4.08-.42,3.27-.11,6.87-1.42,9.72-1.61,3.5-5.72.44-8.46,1.77-1.24.6-3-.18-4.29,1.73C260.7,412.72,266.93,411.81,271.64,415.89Z"/><path class="m" d="M303.28,396.17a16,16,0,0,1,7.6-1.3q-2,12.54-4,25.09l-8.67,0c-3.2-2.06-6.83-.31-10.17-1.16q.48-3.88,1-7.79c3.28-.06,6.57-.11,9.86-.2,1.14,0,2.65,0,2.7-1.48,0-1.62-1.52-1.36-2.62-1.39-3-.08-5.92-.11-8.88-.16-.24-7.87-.24-7.85,7.65-7.92,1.78,0,3.66.4,5.3-.75C304.3,398.23,303.93,397.21,303.28,396.17Z"/><path class="d" d="M399,335.73c1.46,7.56,1.78,15-1.53,22.27-1.59,3.47-3,3.35-4.9.35-6.65-10.65-8.31-21.81-3.37-33.62C393.51,327.43,396.09,331.71,399,335.73Z"/><path class="l" d="M139.1,408.06l3-4.05c.06,2.77,1.4,3.67,4.19,3.44a18.93,18.93,0,0,0,13.1-6.1c6.91-7.41,14.11-14.5,24.87-16.43,3-.53,5.81.25,8.81-.58,4.4-1.22,2.81-4.37,2.87-6.83.08-3.33-2.48-1.55-4-1.6-2.65-.08-5.31-.09-8-.13,1.9-1.19,4.08-1.31,6.21-1.52,6.7-.69,6.7-.66,7.13,5.91.58,8.91.57,8.79-8.42,9.6A42.49,42.49,0,0,0,160,404.39c-6,6.77-12.75,10.34-21.87,7.35C138.47,410.51,138.79,409.29,139.1,408.06Z"/><path class="e" d="M225.89,405.39l4.53,4.83c.9,7.43,4,13.73,9.79,18.57-1.32,3.16.57,6.43-.25,9.54-1,3.71,1,4.86,4,5.34a18.84,18.84,0,0,1-2,.22c-9.41.15-9.4.14-10.3-9.22-.81-8.34-3.49-16.08-9.63-21.84-3.54-3.32-4.7-6.37-2.9-10.7l-.09,0C222.39,401.09,223.51,404.54,225.89,405.39Z"/><path class="c" d="M419.47,496a38.85,38.85,0,0,1-4.89.6q-89.26.23-178.55.38c-.66,0-1.32-.13-2-.19,1.79-1.3,3.85-.83,5.81-.83,18.3,0,36.6,0,54.91-.05,1.74,0,3.63.56,5.53-.88-1.52-1.66-3.41-1.06-5-1.07-16.48,0-32.95,0-49.42-.05-2,0-4,.48-5.81-.84,21.29,0,42.58,0,63.86-.07,16-.07,31.92-.29,47.87-.44l2.74,0,3.44.49c-1.78,1.3-3.85.83-5.8.84-12.31,0-24.62,0-36.92,0-1.76,0-3.6-.35-5.26.52l0,1.53Z"/><path class="j" d="M350,399.9c-6.43,6.31-11.42,13.51-14.14,22.23a12.83,12.83,0,0,1-6.27,7.37c-1.94,1.07-4.2.91-3.5-2.33,2.87-13.29,8.21-25.19,19.64-33.48C349,394.46,350.2,396.69,350,399.9Z"/><path class="m" d="M217.94,440.87l-76,.19c-.84-1.25-.29-2.39.31-3.52l75.65-.26a.75.75,0,0,0,.33.67Z"/><path class="m" d="M287.09,452.08c-2.37,1.45-5,1.57-7.68,1.58q-20.22.06-40.43,0c-2.16,0-4.33.4-4.22-3.12.11-3.36,2.31-2.62,4.15-2.63q21.95-.21,43.89-.34C285.6,447.78,287.25,449.06,287.09,452.08Z"/><path class="c" d="M293.69,340.54c-6,4.52-11.59,9.54-18.55,12.6-3,1.32-3.93,3.74-3.38,6.84-3.35,2.13-1,5.58-1.93,8.27-1.78-7.31-4-14.38-9.59-19.89-3.43-3.39-6.69-6.95-10-10.45-1.2-1.25-3-2.66.57-3,6.23,4.31,12.5,8.61,16.71,15.15,1.48,2.28,2.95.58,4.23,0a84.27,84.27,0,0,0,20.28-14c.45,1.5,1.11,2.6,2.52.82.77-1,1.7-.81,2.67-.78C296,337.57,294.86,339.06,293.69,340.54Z"/><path class="d" d="M190,412.81c-3.3,2.51-7.59,3.22-10.68,6.2s-6.15,6.32-7.05,10.63c-1.05,5-4.69,3.9-7.32,3.15-3.66-1.05-1.05-3.93-.42-5.74,3.79-10.78,11.41-17.69,22.31-20.93,1.47-.44,3.44-1.61,4.67-.26,1,1.14-.48,2.74-.76,4.15-.12.65-.32,1.28-.48,1.92A.91.91,0,0,0,190,412.81Z"/><path class="i" d="M194.59,411c2.17-6.25,4.36-12.48,6.49-18.74,2-5.82,1.95-5.83,8.09-3.46-1.79.35-2.2,1.85-2.67,3.25-1.59,4.7-3.12,9.42-4.69,14.12-.8,2.41-1.05,4.82,1.89,5.74s4.17-1.12,5-3.51c1.66-4.63,2.22-9.66,5.19-13.83,1.09-1.53.42-3.16-.86-4.46,4.89.55,5.82,3.06,3.75,7.26a31.8,31.8,0,0,0-1.5,4.64c-1.47,4.18-2.9,8.37-4.41,12.53-.53,1.44-.51,3.43-2.83,3.45l-2-.8-1-.29A48.69,48.69,0,0,0,195,413Z"/><path class="d" d="M354.51,492.58l-2.73,0a.58.58,0,0,0,.11-.55c-1.93-3.17-3.9-3-5.91-.07l-2,.05c-2-3-4-3-6,0h-2c.1-3.93-3-1.89-4.29-1.9-21.12-.16-42.23-.11-63.35-.11H240.88c.47-2.69,2.15-2,3.24-2q45.88.09,91.76.25c3,0,6-.29,9-.27s2.82-1.59,2.3-3.61L358,490.93C357.34,492.51,355.51,491.66,354.51,492.58Z"/><path class="n" d="M250.8,334.91c-3.62.34-1.77,1.75-.57,3,3.32,3.5,6.58,7.06,10,10.45,5.58,5.51,7.81,12.58,9.59,19.89.66,10,1.42,19.95-.74,29.86-.32-1.37,0-2.91-1-4.08-.28-9.64-.38-19.38-2.91-28.7-2.89-10.64-9.71-19.06-17.3-26.87-1.42-1.47-4.35-2.68-3.6-4.92s4-.48,5.86-1.56C250.33,333,250.57,333.93,250.8,334.91Z"/><path class="e" d="M314.2,385.34c-11.07,1.08-22.15.11-33.22.28-2.4,0-6.74-8.78-5.5-10.83.62-1,1.74-.74,2.67-.74,5,0,9.94.08,14.91.12.62,7.26,4.29,10.75,11.4,10.75,2.32,0,4.63-.15,7-.24Z"/><path class="c" d="M384.85,394c.33,4.08,1.39,6.9,6.47,7.58,7.35,1,13.18,5.55,18.7,10.31-.89,2.1-3.17-.47-4.18,1.23a34.94,34.94,0,0,0-14.29-7.31c-2.74-.74-4.2-.42-3,3,1,3,1.66,6.08,2.57,9.09,1,3.17.6,5.9-2.2,8h0c.34-2.09,1.09-4.27-1.27-5.76-2.72-3.31-5.71-1.45-8.65-.46.43-3-2-1.21-3-1.8l2.05-1.75c1.59-.55,3.61.59,4.87-1.23,2.67-.7,2.47-2.54,1.92-4.61-.7-2.66-1.32-5.34-2-8A23,23,0,0,0,384,393Z"/><path class="j" d="M382.87,414.92c-1.26,1.82-3.28.68-4.87,1.23-1.57-.2-2.83-.74-3.27-2.5-.87-3.51-1.81-7-2.73-10.5-1.62-6.22-1.76-12.78-4.42-18.75l5.36-2.43,1,.18Q378.42,398.53,382.87,414.92Z"/><path class="i" d="M298.18,419.93l8.67,0c-.26,1.8-.5,3.61-.76,5.41-.43,2.86-2,4.5-5,4.5H275.39c2.5-2.14,4.47-3.7,4.76-6.35.21-1.93,1.74-1.68,3-1.69,3.66,0,7.31,0,11,0C295.75,421.79,297.61,422.21,298.18,419.93Z"/><path class="i" d="M311.41,384.68c-2.32.09-4.63.24-7,.24-7.11,0-10.78-3.49-11.4-10.75l24,0C316.54,378.41,317.37,383.39,311.41,384.68Z"/><path class="f" d="M326.12,296.94c8.81,2.33,13.19-.16,13.87-7.91a13.17,13.17,0,0,1,4.7,6.78c.27.79,2.08,3.4-1.52,2.25-1.45-.47-.72.68-.46,1.41,2.34,6.57,1.79,7.72-4.87,10.14-.36-2.27-.7-4.51-1-6.75-1.12.13-.92.88-1.11,1.4-.7,2,0,5.69-3.24,5-2.88-.6-6.49-2-6.25-6.39C326.29,300.91,326.15,298.92,326.12,296.94Z"/><path class="c" d="M388.9,425.92c.77,3.7,1.58,7.39,2.3,11.1.83,4.34-1.12,7.54-5.2,8.71-4.47,1.27-7.87-.43-9.4-4.83a39.09,39.09,0,0,1-1.51-5.74c-.47-2.53-1.27-4.52-3.89-5.81-2.38-1.17-2.9-3.84-3-6.4l4,1.95c2.38,2,5.23.65,7.83,1.11.29,1.77,1.66,1.94,3.06,2.06a1.68,1.68,0,0,1-.32.69c-3.48.13-5.27,1.4-3.7,5.21a43.11,43.11,0,0,1,1.05,4.28c1.27,4.31,3,4.74,6.93,1.76.82-4.24-1.64-7.9-2.11-11.91a5,5,0,0,0,4-2.18Z"/><path class="i" d="M156.07,414c1.34,1.61-.06,2.76-.71,4a44.39,44.39,0,0,0-3.52,9.19c-.92,3.36,0,4.91,3.15,5.59l-10.92.49c-3.25.15-4.17-1.23-3.25-4.37s1.53-6.61,2.27-9.92l.21-1.58a1.93,1.93,0,0,0,.77-.28C148.45,417.52,152,414.55,156.07,414Z"/><path class="j" d="M413.93,390.79c-1,1.35-2.62,1-4,1.4-3.78.44-6.87-1.95-10.4-2.53-3.93-2.28-8.41-2-12.65-2.29-3.88-.22-5.66-1.77-5.28-5.36.45-4.17,3.87-1.68,5.94-2.19a7.65,7.65,0,0,1,2.47.27c1.18,1.7,3.05,1.59,4.81,2C401.75,383.75,408.66,385.5,413.93,390.79Z"/><path class="l" d="M367.58,384.4c2.66,6,2.8,12.53,4.42,18.75.92,3.5,1.86,7,2.73,10.5.44,1.76,1.7,2.3,3.27,2.5L376,417.9c-4.32,1.47-5.56,0-6.31-4.59-1.31-7.89-3.86-15.58-5.89-23.36C363.14,386.8,364.58,385.06,367.58,384.4Z"/><path class="d" d="M216.28,412.93a32.55,32.55,0,0,1,11.42,24.29C216.94,433,211.85,422.51,216.28,412.93Z"/><path class="o" d="M349.75,337.26l-1.71.41c-2.42-5-7.05-7.37-11.86-9.12-11.11-4-22.19-3-33.12,1,0-1.69,1.18-2.25,2.47-2.66,11.17-3.58,22.47-6.18,33.73-.8C344,328.34,349.13,330.85,349.75,337.26Z"/><path class="i" d="M374.51,300.09c-1.49,4.61-.18,9.54.55,14.41.57,3.73-2,4.33-4.24,4.77-3.07.58-1.84-2.41-2.3-3.76-1.81-5.36-1.27-10.79.1-16.16.47-1.88,1.53-3.56,3.76-3.12C374,296.55,374.63,298,374.51,300.09Z"/><path class="k" d="M352.36,280.55c3.44.49,6.87,1,10.31,1.47,3.22.41,6.45.74,9.8,1.49-5.74.69-10.06,3.28-12.59,8.46l-4,.1a19.75,19.75,0,0,0-7.06-5.18C350.65,285.16,349.75,281.86,352.36,280.55Z"/><path class="m" d="M182.58,433.07c-1.78,0-2.78-.09-3.76,0-2.92.32-3.53-.82-2.31-3.36a20.9,20.9,0,0,1,6.3-8.11c1.55-1.13,4-3.36,4.9-2.2,1.5,2,4.1,3.93,2.76,7.7C188.87,431.62,187.06,434.53,182.58,433.07Z"/><path class="d" d="M266.9,431.24c-2.4,3-3.75,6.25-3,10,.45,2.15-.61,2.89-2.37,2.48-2.41-.56-5.74,2-7.16-2-.1-.29,0-.66,0-1C254.09,430.81,254.09,430.81,266.9,431.24Z"/><path class="m" d="M378.88,350.05c-3.52-9.86-1.67-19.23,2.64-28.36.4-.84.76-2,2.11-1.52a2,2,0,0,1,1.23,2.44c-.51,2.08-1.28,4.09-1.79,6.17-1.79,7.28-1,14.49.62,21.67Z"/><path class="e" d="M351.89,492a.58.58,0,0,1-.11.55c-16,.15-31.92.37-47.88.44-21.28.08-42.57.05-63.86.07H218.76c.69-1.69,1.43-2.26,2.69-2.24,1.14,1.22,2.66,1.26,4.16,1.26L336,491.94h2l6,0,2-.05Z"/><path class="i" d="M287.09,452.08c.16-3-1.49-4.3-4.29-4.46a15,15,0,0,0,9.43-9.59c.61-1.69,1-3.35,3.53-3.47,3.59-.17,5.07.51,3.34,4.37C296.52,444.66,293.61,450,287.09,452.08Z"/><path class="g" d="M352.36,280.55c-2.61,1.31-1.71,4.61-3.58,6.34-3,.55-5.29-.47-7.5-2.67-3.44-3.39-7.88-5.3-12.38-7,.61-1.11,1.81-1.16,2.81-1.57l2.36.47a2.49,2.49,0,0,0,2.32.85Z"/><path class="d" d="M331.45,314.1c14.43.57,14.43.57,16,11.74-4.46-2.46-8.63-4.94-13.47-6C331.16,319.19,332.61,316.15,331.45,314.1Z"/><path class="l" d="M350,399.9c.23-3.21-1-5.44-4.27-6.21,1.83-3.3,5.14-4.88,8.12-6.76,1.53-1,3.6-2.6,5,.14,1.16,2.29,2.47,4.88-.51,7C355.53,396,352.75,398,350,399.9Z"/><path class="i" d="M275.27,443.81c-3.19,0-7,.2-7.24-4.45-.2-4.3,3.1-4.69,6.53-4.76,4.08-.09,6.07,1.45,6.23,5.73C281,444.89,277.84,443.62,275.27,443.81Z"/><path class="i" d="M371.36,347.86a70.83,70.83,0,0,0-6.28-17.94l.87-1.05-.08.07c3.32.07,5.32-3.78,8.89-3a62.37,62.37,0,0,0-1.65,19.82C372.82,346.72,372.5,347.64,371.36,347.86Z"/><path class="i" d="M244,443.67c-3.05-.48-5-1.63-4-5.34.82-3.11-1.07-6.38.25-9.54l6.86,2.35A40.4,40.4,0,0,1,247.9,443l-1.88.68Z"/><path class="c" d="M225.19,484a65.54,65.54,0,0,0,18.74-20.1l.18.18c0,2.2-.07,4.4-.1,6.59a42.21,42.21,0,0,1-13.72,14.43A9,9,0,0,0,225.19,484Z"/><path class="o" d="M382.87,414.92q-4.44-16.4-8.9-32.77c2.31-.49,3.11.79,3.29,2.79l1.68,5.06c.09.65.19,1.3.28,1.95-.72,1.91,1.47,2.55,1.77,4a15.11,15.11,0,0,0,1.82,6.33c.66,2.67,1.28,5.35,2,8C385.34,412.38,385.54,414.22,382.87,414.92Z"/><path class="m" d="M365.8,348c.71,4.1-2.45,3.63-4.82,4.08-3.56-4.47-3.89-9.82-4.08-15.2a3.85,3.85,0,0,1,3-.93,12,12,0,0,1,3.32,6.77C363.59,344.52,363.17,347.11,365.8,348Z"/><path class="e" d="M371.36,347.86c1.14-.22,1.46-1.14,1.75-2.08,1.46,6.61,3.34,13.05,8,18.7C371.93,364.05,368.59,358,371.36,347.86Z"/><path class="d" d="M207.47,466.54c-8.35,4.54-16.84,4.23-25.35,0Z"/><path class="c" d="M273.93,302.17c-6.51-2-11.71-6.45-17.64-9.53-.51-.58-1.65-.9-1.25-1.88.64-1.56,2-1,2.89-.42,6.55,4.22,13.92,6.65,21,9.66C277.06,300.24,274.65,299.25,273.93,302.17Z"/><path class="d" d="M324.77,310.05c-1.48,3-3.74,1.92-5.52,2-3.11.1-5.46,1.6-5.64,4.45-.28,4.33-2.84,4.91-6.65,5.19,1.07-4,2.1-7.7,3.06-11.44.51-2,2.15-1.57,3.2-1.22C316.86,310.24,320.64,309.64,324.77,310.05Z"/><path class="i" d="M358,331.58c-2.7,1.92-4.32,1.6-5-2s-1.73-7.39-2.77-11.05c-.69-2.42.41-3.36,2.57-3.69C356.63,319.77,357.08,325.75,358,331.58Z"/><path class="f" d="M300.86,288.14c-.56,4.37,1,6.62,5.74,6a5.2,5.2,0,0,1,3.68,1.29,7.14,7.14,0,0,0-.5,1.86c.1,6.77-4.11,6.53-8.83,5.49,2.23-3.19-.61-5.86-.93-8.79C300.49,292.05,299.47,289.92,300.86,288.14Z"/><path class="c" d="M217.91,437.28l-75.65.26c-.17-1.58-.23-3.11,1.8-3.59h0c1,3,3.55,1.95,5.51,2,20.77.07,41.53,0,62.3.08C213.92,436,216.26,435.18,217.91,437.28Z"/><path class="i" d="M379.25,300.56c-1.41-5-2.73-8.77-7.53-8.59-4.06.15-6,3-7.47,7-1.93-4.15-.17-6.8,2.42-8.95a7.4,7.4,0,0,1,9.27-.52C379.48,291.75,380.71,295,379.25,300.56Z"/><path class="l" d="M380,426c-2.6-.46-5.45.89-7.83-1.11.53-4,4-4.18,6.84-5.2s5.93-2.85,8.65.46c-.2.68-.39,1.37-.59,2-.54,0-.95.11-1,.75Z"/><path class="i" d="M378.88,350.05l4.81.4c2,5.06,3.81,10.18,8.11,13.94C386.81,366.26,380.6,359.25,378.88,350.05Z"/><path class="i" d="M322,299.8c.09,3.6-.28,5.58-3.41,5.23-2.89-.32-5.36-1.45-5.26-4.67.09-2.85,2-5.15,5-5.12C321.85,295.28,321.82,298.39,322,299.8Z"/><path class="i" d="M204,419.74c1.15,1.19,4.44.63,3.66,3.08-.92,2.9-3.52,1.53-5.51.84a73.93,73.93,0,0,1-7.44-2.82c-2.45-1.16-3.17-2.87-.69-4.88Z"/><path class="o" d="M413.93,390.79c-5.27-5.29-12.18-7-19.09-8.69-1.76-.42-3.63-.31-4.81-2,5.94-.78,11.38,1.28,16.87,3l2.61,1.17q2.67,1.64,5.32,3.29C418.26,389.69,416.12,390.24,413.93,390.79Z"/><path class="i" d="M367.12,367.16c-2.8,2.2-4.54,1.93-5.27-1.94-.49-2.56-.74-5.25-2.57-8l5.52-1.43Q366,361.49,367.12,367.16Z"/><path class="i" d="M356.9,336.85c.19,5.38.52,10.73,4.08,15.2-.75.28-1.64,1-2.23.76-5.53-1.84-3.89-7.34-5.37-11.19C352.43,339.14,354.07,337.24,356.9,336.85Z"/><path class="j" d="M372.17,378.22a5.48,5.48,0,0,1-4.25,1.8c-2.94-1.39-2.22-4.36-2.89-6.73,1.75-1.34,3.57-2.43,5.91-2.08l2,6.81,0,0Z"/><path class="e" d="M230.32,446.8c.81,3.79,1.44,7.55-2.69,10-1.53.91-3,3.31-4.5,2.52-1.87-1-.67-3.55-.68-5.45,3.5-.2,5.15-2.68,6.61-5.39Z"/><path class="m" d="M378.17,368.71c2.81,2.12,7.69-2.83,8.84,3.44.29,1.56,0,2.39-1.91,2.52C381.18,374.93,377.58,375.07,378.17,368.71Z"/><path class="m" d="M137.35,443.86c0,3.74,0,7.34,0,10.94,0,2.62-1.85,2.63-3.35,1.74-2-1.17-.56-11.2,1.62-12.46C136,443.86,136.52,444,137.35,443.86Z"/><path class="m" d="M209.44,433.53c-1.79-1.35-5,1.1-5-1.85,0-3.85,4.54-3.72,7-5.14,1.11-.64,2.89,3,2.77,4.94C214,435.36,210.55,431.38,209.44,433.53Z"/><path class="m" d="M385.85,294.93c.79,3.38,3.57,6.77.08,10.13-1.59,1.53-3.38,2.76-6.06,1.47,2.48-3.24,4.45-6.65,4.46-10.84,0-.22,1.05-.44,1.61-.66Z"/><path class="h" d="M331.71,275.69c-1,.41-2.2.46-2.81,1.57a78.91,78.91,0,0,1-8.95-2.18c-2.89-1-6.24-.63-9.93-3.53C318.45,270.92,325,273.68,331.71,275.69Z"/><path class="i" d="M350.72,306.94c3.13-5.69-.78-10.27-3.34-15.75,6.78,3.67,8.61,10,5.67,16.94Z"/><path class="i" d="M229.06,448.46c-1.46,2.71-3.11,5.19-6.61,5.39,0-.65,0-1.3-.08-2,1.33-2.6.26-5.46.87-8.14C225.8,444.56,227.53,446.39,229.06,448.46Z"/><path class="l" d="M365,373.29c.67,2.37,0,5.34,2.89,6.73a4.93,4.93,0,0,0-.11.67l-5.8,1.24C361.57,378.54,357.51,373.88,365,373.29Z"/><path class="m" d="M311.41,384.68c6-1.29,5.13-6.27,5.69-10.49,2.5-.67,3.66,0,3.3,2.85-.5,4-1.75,7.32-6.2,8.3Z"/><path class="m" d="M192.73,432.84c1.78-2.35,0-6.6,4.51-6.36,1.25.06,4-.06,3.34,3.07C199.59,434.2,196.35,433.09,192.73,432.84Z"/><path class="c" d="M362,381.93l5.8-1.24c1.39,1.7,3.35,1.14,5.13,1.28l-5.36,2.43c-3,.66-4.44,2.4-3.83,5.55C360.44,387.87,362.61,384.6,362,381.93Z"/><path class="m" d="M399,335.73c-2.86-4-5.44-8.3-9.8-11,.66-2.18,1.93-2,3.31-.75C395.94,327.16,399,330.62,399,335.73Z"/><path class="c" d="M204,419.74l-10-3.78c.33-1,.65-2,1-3a48.69,48.69,0,0,1,10,3.85Z"/><path class="f" d="M355.84,292.07l4-.1c-1.43,4.33-.45,8.4,1.4,12.35.33.71,1.13,1.32.51,2.18s-1.49.57-2.26.4c-1.07-.23-.95-1.13-.9-2A26.34,26.34,0,0,0,355.84,292.07Z"/><path class="f" d="M358,331.58c-.93-5.83-1.38-11.81-5.2-16.74,1.36-1.37,2.64-3.91,3.47.5s2.27,8.49,3.44,12.72C360.18,329.73,360.64,331.41,358,331.58Z"/><path class="k" d="M386.05,294c-2.47.13-2.53-2.11-3.42-3.51a13.74,13.74,0,0,0-5.69-5.17c4.3-.83,6.92,1,9.35,3.43C384.49,290.4,386.47,292.24,386.05,294Z"/><path class="i" d="M322.52,319.1l-2.83.21c-1,.09-2.18.21-2.18-1.2a1.88,1.88,0,0,1,1.95-1.85,9.37,9.37,0,0,1,2.48,0c2,.45,5.64-1.33,5.7,1.61C327.68,320.24,324,318.4,322.52,319.1Z"/><path class="f" d="M365.8,348c-2.63-.86-2.21-3.45-2.55-5.28a12,12,0,0,0-3.32-6.77c2.65-1.21,4.14.3,4.72,2.51C365.46,341.52,366.74,344.63,365.8,348Z"/><path class="d" d="M363.38,321.88c-2.34-3.2-2.27-6.09-3.14-8.65-.31-.9-.49-2,1-2.28a1.82,1.82,0,0,1,2.44,1.68A18.24,18.24,0,0,1,363.38,321.88Z"/><path class="f" d="M247.9,443a40.4,40.4,0,0,0-.83-11.86c4.06,1.66,4.7,8.84,1.11,12.57A1.42,1.42,0,0,0,247.9,443Z"/><path class="m" d="M374.76,326c-3.57-.8-5.57,3.05-8.89,3,4.14-4.66,4.89-5.15,10-6.51C376.61,324,375.23,324.82,374.76,326Z"/><path class="c" d="M243.93,463.85l.51-1c2-1.81,2.81-5.28,6.51-4.87-.92,2-1.27,4.33-2.94,6l-3.9.09Z"/><path class="f" d="M367.12,367.16q-1.15-5.67-2.32-11.34C368.11,357.34,369.68,365,367.12,367.16Z"/><path class="d" d="M284.8,441.12c.9-2.68-2.05-5,.69-6.88.74-.51,3-.56,3,.4C288.65,437.05,287.73,439.33,284.8,441.12Z"/><path class="m" d="M229.06,448.46c-1.53-2.07-3.26-3.9-5.82-4.7l-1-1.91c-.23-1.69.06-2.9,1.88-1.27,2.18,2,4.16,4.14,6.22,6.22Z"/><path class="e" d="M350.72,306.94l2.33,1.19c-1.5,3.27-3.89,4.31-8.27,2.89A16.35,16.35,0,0,0,350.72,306.94Z"/><path class="m" d="M386.05,294c.42-1.74-1.56-3.58.24-5.25,2.58,1.74,3,4.34,3,7.1-1.62.83-2.05-1.7-3.47-.9l.09.1C386,294.68,386,294.33,386.05,294Z"/><path class="o" d="M373,378l-2-6.81c3.75-.49,3.54,2.58,4.18,4.77C375.65,377.79,374.68,378.38,373,378Z"/><path class="c" d="M144.07,433.23l10.92-.49,3,.4c-4.55,1.66-9.27.42-13.9.81h0C144.06,433.71,144.06,433.47,144.07,433.23Z"/><path class="c" d="M392,391.75l-7.85-.58C386.85,389.57,389.54,388.73,392,391.75Z"/><path class="c" d="M217.94,440.87l.3-2.92c2.71,1.95,2.68,3.94.08,6C218.19,442.9,218.07,441.89,217.94,440.87Z"/><path class="c" d="M378.94,390l-1.68-5.06C381.05,385.56,380.26,387.69,378.94,390Z"/><path class="e" d="M222.22,441.85l1,1.91c-.61,2.68.46,5.54-.87,8.14Z"/><path class="c" d="M381,396c-.3-1.47-2.49-2.11-1.77-4C382.15,392.26,382.6,393.66,381,396Z"/><path class="e" d="M354.51,492.58c1-.92,2.83-.07,3.52-1.65.89.12,1.66.53,1.58,1.47,0,.27-1.08.45-1.66.67Z"/><path class="c" d="M190,412.81a.91.91,0,0,1,.27-.88c.6-.18,1.3-.6,1.6.35a1.08,1.08,0,0,1-.24.89C190.92,413.78,190.41,413.34,190,412.81Z"/><path class="c" d="M382.41,388.77l.63-.3a1.78,1.78,0,0,1,.12.35,4.65,4.65,0,0,1-.63.32Z"/><path class="h" d="M336.39,277a2.49,2.49,0,0,1-2.32-.85C335,276.1,335.93,275.86,336.39,277Z"/><path class="c" d="M159.11,431.94l.45-2.79A2,2,0,0,1,159.11,431.94Z"/><path class="c" d="M143.3,417.36l-.21,1.58c-.28-.53-.82-1.09-.76-1.57C142.42,416.68,143,417,143.3,417.36Z"/><path class="c" d="M206.09,417.14l2,.8Z"/><path class="e" d="M247.9,443a1.42,1.42,0,0,1,.28.71l-2.16,0Z"/><path class="f" d="M310.35,295.31a1,1,0,0,1,1-1.11Z"/><path class="o" d="M372.17,378.22,373,378Z"/><path class="m" d="M366,328.87l-.87,1.05Z"/><path class="g" d="M264,199.36l-2-1.72c-.15-4-2.81-7-4.1-10.58a115.46,115.46,0,0,1-7-34.92c-.4-9.43,1.69-18.7,1.09-28.1,9.9-10.42,22.12-17.09,35.53-21.73,4.65-1.62,5.79-3.58,4.08-8.2-.57-1.55-1.18-3.09-1.88-4.59-3.45-7.48-6.17-15.43-12.28-21.33-4.63-4.47-10.08-3.68-13.51,1.71a34.7,34.7,0,0,0-2,3.41c-7.45,15.48-10.48,32.3-14.73,48.75-.55,2.16.38,3.55,2.74,3.71-.14.45-.24,1.29-.44,1.31-6.62.88-9.91,5-11.67,11.13-.9,3.13-2.24,1.07-3.31-.15,3.68-18.91,7-37.91,13.67-56.08,3-8.22,6.13-16.37,12.85-22.67,2.9-2.72,5.69-3.71,9.35-3.18a77.53,77.53,0,0,1,19.19,17.71A159.09,159.09,0,0,1,303,94.14c2,3.69,4.26,4.57,7.87,3.77,7.16,1.46,14.54,2,21.27,5.24.25,2,1.9,2.34,3.43,3.09,11.47,5.57,21.26,13.22,28.49,23.84,15.16,22.28,16.59,46.91,12.36,72.54-1.29,7.82-4.48,15.25-4.66,23.3-.06,3-1.72,4.41-4.87,4.25-3.64-.18-7.3,0-11-.06-6.72-.79-10.91-5.06-14-10.57-3.35-6-6.17-12.32-10-18-2.58-3.85-5.26-7.43-9.77-9.49-8.09-3.69-15.76-1.58-23.49.9-11,3.53-21.66,8.38-33.65,7l0,.1C265,199.38,264.57,199.27,264,199.36Zm14-59.26h0c-2.41.43-2.07,2.29-1.84,3.87.32,2.2,2.19,2.84,4,3.05,3.59.41,7.22.6,10.83.89,2.56.5,5.38,1.45,6.71-1.89,1.23-3.07-1.14-4.35-3.33-5.57a12.25,12.25,0,0,0-1.35-.54C288.92,137,281.42,137.11,278.07,140.1Zm-8.32,45c3.7,8.78,10.63,11.09,17.67,5.88,6.8-5,9.76-16.11,6.35-23.77-2.74-6.17-8.84-8.31-14.73-5.15C271.2,165.35,266.83,176.34,269.75,185.09ZM341,202c0,6.62,2.92,11.27,8.24,13.15,4.16,1.46,9.46-.71,13.45-5.46,4.26-5.08,5.29-11.07,4.06-17.26-1.61-8.11-7.57-11.37-15.55-8.57C345.5,185.88,339.7,194.53,341,202Zm31.27-31.28c-.05-5-5.15-10.26-10.15-10.3a6,6,0,0,0-5.69,3.27c-1.21,2.61.95,3.79,2.77,5,2.6,1.72,5.06,3.67,7.73,5.26C371,176.42,372.28,175.56,372.23,170.75Z"/><path class="k" d="M265,199.92c12,1.36,22.68-3.49,33.65-7,7.73-2.48,15.4-4.59,23.49-.9,4.51,2.06,7.19,5.64,9.77,9.49,3.85,5.73,6.67,12,10,18,3.06,5.51,7.25,9.78,14,10.57,5.92,2.52,12.41.93,18.45,2.57a19.82,19.82,0,0,1-1.7,7.26c-6.33,2.41-12.64,4.62-19.54,5.24A80.05,80.05,0,0,1,321.81,242c-6.11-1.9-12.6-3-17.89-7.09,3.18-1.68,7.52.82,10.16-2.82,3.62-2.39,5-6.07,5.91-10.08,1.58-3.37,6.5.29,7.78-3.71a2.88,2.88,0,0,0-.89-.32c-3.95-.13-7.58-1.2-8.2-5.62s3-5.1,6.35-6,3.67-3.13,1.69-5.66a14.06,14.06,0,0,0-4-3.69c-2.88-1.57-6.48-3.7-9.23-1.23s.14,5.6,1.47,8.07,1.69,4.47,0,6.41-4.39,2.13-6.9,1.23c-4.35-1.56-5.81-4.9-5-10.22-3.21,3.09-2.84,5.82-1.4,8.25,1.26,2.14,1.29,4.36,1.68,6.62.48,2.79-.75,3-3,2.67a19.18,19.18,0,0,0-16.23,4.47c-5.7-6.72-12.74-12.26-17.31-20C266.1,202.24,265.1,201.33,265,199.92Z"/><path class="g" d="M172.1,251.72c-4.67,4.11-8.71,8.69-11.15,14.5l-.87.87.06,0c-2.4-.36-2.76,1.83-3.23,3.12-2.89,7.9-4,16.12-2.1,24.36,1.17,5.16,1.33,10.52,5.15,15.18a62.51,62.51,0,0,0,16.22,14,3.72,3.72,0,0,1-3.06,1.28c-7.81.07-15.69.7-23.05-2.86l-1.12.27a76.76,76.76,0,0,1-14-17.93c-6.63-12.08-9.66-24.7-4.81-38.14,1.83-5.06,4.6-9.77,6.94-14.64,7.11-6.4,15.52-8.45,24.85-7.41,1.11,1.82,3.26,1.42,4.77,2.28C168.88,247.77,172.74,247.5,172.1,251.72Z"/><path class="h" d="M252,124c.6,9.4-1.49,18.67-1.09,28.1a115.46,115.46,0,0,0,7,34.92c1.29,3.55,3.95,6.58,4.1,10.58-4.66-1.73-7.79-5.49-10.6-9.12-6.71-8.7-15.37-11.83-26-11-3.13.25-6.29.1-9.43.13,2-7.17,6-13.43,9.22-20.06s6.87-12.68,9.24-19.52c1.07,1.22,2.41,3.28,3.31.15,1.76-6.08,5.05-10.25,11.67-11.13.2,0,.3-.86.44-1.31A2.48,2.48,0,0,1,252,124Z"/><path class="g" d="M414.77,117.08c-3.79,18.19-12.66,34.28-21.07,50.54-.51,1-1.57,1.67-2.24,2.59-.95,1.32-1.31,4.39-3.3,3.13-2.19-1.38-1.62-4.3-.28-6.59,6.56-11.14,12.19-22.75,17.63-34.45a74.32,74.32,0,0,0,3.22-8.86c1.12-3.52,2.37-7.38-.5-10.41-3.06-3.24-7.43-2.51-11.19-1.59-7.58,1.85-14.6,5.32-21.41,9-3.71,2-6.62,2.84-9.1-1.46a14.21,14.21,0,0,0-2.37-2.55c-3.83-3.84-3.63-4.48,1.95-6,9-.82,16.72-5.8,25.45-7.72,9.28-2,18.14.83,21.55,8.28C414,113,412.87,115.46,414.77,117.08Z"/><path class="f" d="M149,322.37l1.12-.27c6.87,8.93,26.42,17.2,38.21,13.66a13.46,13.46,0,0,1,2.17,6.22.59.59,0,0,0-.57.52c-13.42,1.07-26.52-.2-39.1-5.33-21.06-8.6-35.43-32.66-31.89-53.39,0,5.58,1.64,10.74,3.9,15.73C128,311.09,136.72,318.76,149,322.37Z"/><path class="n" d="M374.39,232.68c-6-1.64-12.53-.05-18.45-2.57,3.66,0,7.32-.12,11,.06,3.15.16,4.81-1.29,4.87-4.25.18-8,3.37-15.48,4.66-23.3,4.23-25.63,2.8-50.26-12.36-72.54-7.23-10.62-17-18.27-28.49-23.84-1.53-.75-3.18-1.06-3.43-3.09a63.13,63.13,0,0,1,27.29,15.07c11.89,11.08,18.37,24.56,21.95,39.91a47.08,47.08,0,0,1,.61,4.93q0,15.06.05,30.12c-.43,6.33-2.44,12.35-3.59,18.54C377.16,218.72,375.75,225.69,374.39,232.68Z"/><path class="k" d="M149,322.37c-12.23-3.61-20.92-11.28-26.16-22.86-2.26-5-3.94-10.15-3.9-15.73.59-12,6.09-21.8,14.29-30.23.95-1,2.59-1.28,3.91-1.89-2.34,4.87-5.11,9.58-6.94,14.64-4.85,13.44-1.82,26.06,4.81,38.14A76.76,76.76,0,0,0,149,322.37Z"/><path class="i" d="M165.81,357.9l-1.45,0c-2.65-1.32-5.62.12-8.29-1-.07-1,.46-2.24-.74-3,2.13-9,2.13-9,11.22-7.9,1.15.13,2.32.1,3.48.15l.28.1.27-.15c5.32,1.58,10.79,1.19,16.14.7,4.16-.38,7.31.31,9.31,4.18.27,1.34,1.29,2.13,2.19,3,.34,1.34,2.1,2,1.7,3.73l-.27,0-.21.18A205.23,205.23,0,0,0,165.81,357.9Z"/><path class="o" d="M399.86,132.84c-3.09,9.59-8.35,18.1-13.55,28.14-1.91-11.44-5.87-20.79-10.39-29.93,4.25-1.39,8.45-3,12.75-4.13C396.89,124.71,397.72,125.23,399.86,132.84Z"/><path class="h" d="M188.28,335.76c-11.79,3.54-31.34-4.73-38.21-13.66,7.36,3.56,15.24,2.93,23.05,2.86a3.69,3.69,0,0,0,3-1.28c2.51,0,4.63,2,7.25,1.42,2.8-.64,3.92.86,4.19,3.35S188.06,333.32,188.28,335.76Z"/><path class="p" d="M399.86,132.84c-2.14-7.61-3-8.13-11.19-5.92-4.3,1.16-8.5,2.74-12.75,4.13-3.25-2.88-2.94-4.8,1.2-6.62,6.8-3,13.35-6.55,20.49-8.76,2.22-.69,4.76-1.62,6.63,0s1,4.39.35,6.54C403.4,125.88,402.77,129.88,399.86,132.84Z"/><path class="n" d="M183.42,325.1c-2.62.56-4.74-1.39-7.25-1.42a62.63,62.63,0,0,1-16.21-14c-3.82-4.66-4-10-5.15-15.18-1.87-8.24-.79-16.46,2.1-24.36.47-1.29.83-3.48,3.23-3.12-3.24,10.42-3.84,21.3-.73,31.46a36.9,36.9,0,0,0,20.23,23.23C181.25,322.48,183.25,322.75,183.42,325.1Z"/><path class="n" d="M310.88,97.91c-3.61.8-5.88-.08-7.87-3.77a159.09,159.09,0,0,0-13.47-20.3,77.53,77.53,0,0,0-19.19-17.71c5.7-1.15,9.45,2.23,13.54,5.38,3.32,2.55,4.62,6.84,8.36,8.87,0,.81.25,1.32,1.16,1.24l-.35.16.36-.13.82,1.39-.05-.23c-.18,2.35.75,3.85,3.22,4.15l.57.79c-.22.52,0,.67.49.61l.21.26c-.34.8-.09,1.17.78,1.11A140.39,140.39,0,0,1,310.88,97.91Z"/><path class="n" d="M414.77,117.08c-1.9-1.62-.75-4-1.66-6-3.41-7.45-12.27-10.33-21.55-8.28-8.73,1.92-16.45,6.9-25.45,7.72,6-4.85,13.3-6.68,20.4-8.9,2.95-.92,6.27-1.16,9.06-2.12,10.23-3.54,20.66-1.07,19.58,14.14C415.07,114.77,414.9,115.92,414.77,117.08Z"/><path class="b" d="M170.58,346.08l-.27.15-.28-.1c.59-2.53,2.64-2.12,4.42-2.14,3.66,0,7.32,0,11,0,1.62,0,3.42.38,4.45-1.46a.59.59,0,0,1,.57-.52l3.78-2.1a5.24,5.24,0,0,1,1.88,4C195,346,193,346,191,346Z"/><path class="n" d="M172.1,251.72c.64-4.22-3.22-3.95-5.39-5.19-1.51-.86-3.66-.46-4.77-2.28a30,30,0,0,1,9.9,1.69c1.48.56,3.76.72,3.93,2.44C176,250.43,173.63,250.9,172.1,251.72Z"/><path class="f" d="M382.05,193.18q0-15.06-.05-30.12A87.55,87.55,0,0,1,382.05,193.18Z"/><path class="f" d="M297.41,77c-2.47-.3-3.4-1.8-3.22-4.15A10.57,10.57,0,0,1,297.41,77Z"/><path class="f" d="M293.41,71.62c-.91.08-1.2-.43-1.16-1.24Z"/><path class="f" d="M299.46,79.73c-.87.06-1.12-.31-.78-1.11Z"/><path class="n" d="M160.08,267.09l.87-.87C161,266.82,160.72,267.16,160.08,267.09Z"/><path class="f" d="M298.47,78.36c-.48.06-.71-.09-.49-.61A.63.63,0,0,1,298.47,78.36Z"/><path class="f" d="M294.24,73l-.82-1.39Z"/><path class="j" d="M183.91,375.78c2.66,0,5.32.05,8,.13,1.54,0,4.1-1.73,4,1.6-.06,2.46,1.53,5.61-2.87,6.83-3,.83-5.84.05-8.81.58-10.76,1.93-18,9-24.87,16.43a18.93,18.93,0,0,1-13.1,6.1c-2.79.23-4.13-.67-4.19-3.44,2.33-5.12,6.69-8.68,10-13v0a6.47,6.47,0,0,0,3.08-2.81l.8-.54C164.61,382.13,173.32,376.73,183.91,375.78Z"/><path class="j" d="M156.15,364.05c1-.4.84-1.28.84-2.09q14.52-.06,29.06-.11c1.1,0,2.34-.27,3.12.92.37,2.71-.94,4.93-2.14,7.19a99.66,99.66,0,0,0-30.24,11.76c-1.12-1.9-.53-3.93-.91-5.75,1-2,.26-4,0-6C155.94,368,156.05,366,156.15,364.05Z"/><path class="f" d="M213.05,390.06c1.28,1.3,1.95,2.93.86,4.46-3,4.17-3.53,9.2-5.19,13.83-.85,2.39-2.17,4.41-5,3.51s-2.69-3.33-1.89-5.74c1.57-4.7,3.1-9.42,4.69-14.12.47-1.4.88-2.9,2.67-3.25Z"/><path class="l" d="M187,370c1.2-2.26,2.51-4.48,2.14-7.19,4.8-1.72,9.79-.77,14.68-.88,2.87-.07,4.21,2.12,4.33,5,.14,3.33-2.16,3.1-4.34,3.1Z"/><path class="l" d="M145.69,366.06c1.11-3.51,4-1.5,6.07-1.93l.39,3.86q0,7.49-.1,15c-.52,3.58-2.93,4.72-6.18,4.8-1.94.05-3.88.18-5.82.27l-1.79-.81,1.6-.85c-2.88-1.57-1.75-4.2-1.71-6.54a14.74,14.74,0,0,1,1.49.15c8.77,1.85,10.57.43,10.51-8.27a18.82,18.82,0,0,1,0-2.49C150.62,365.37,148.6,365.11,145.69,366.06Z"/><path class="o" d="M211.91,376.8c2.43,1.06,5.19,1.35,7.3,3.15l-1.41,6.58c-3.9.05-7.18-2-10.71-3.19-.78-3.3,1.95-5.4,2.78-8.15l1.13,1Z"/><path class="l" d="M209.87,375.19c-.83,2.75-3.56,4.85-2.78,8.15-2.23-1.08-5.76-.33-5.51-4.67C202,371.51,206.51,374.9,209.87,375.19Z"/><path class="j" d="M217.8,386.53l1.41-6.58c6.65,1.39,8,3.1,5.19,6.7C222.17,389.55,220,388.4,217.8,386.53Z"/><path class="l" d="M228.35,395.93c-.89,1.31,1.2,4.27-1.83,4-2.07-.19-4.47-1.68-4.41-4.39s2.51-3.77,4.43-3.79C229.3,391.73,227.52,394.53,228.35,395.93Z"/><path class="b" d="M152.05,383q0-7.48.1-15l3.69,2c.3,2,1.07,4,0,6-1.9.53-1.81,2.09-1.82,3.57S154,382.57,152.05,383Z"/><path class="b" d="M225.89,405.39c-2.38-.85-3.5-4.3-6.78-3.3.28-2,1.72-2.43,3.26-1.93C224.77,401,226.19,402.66,225.89,405.39Z"/><path class="b" d="M198.22,354c-.9-.89-1.92-1.68-2.19-3,.77-.93-.19-3,2-3l1.27,1.79C197.26,350.73,201.41,353.31,198.22,354Z"/><path class="b" d="M152.1,391c-.91-.28-1.91-.49-1.66-1.8,0-.21.46-.54.62-.5,1.28.33.82,1.48,1,2.32Z"/><path class="b" d="M156,387.67l-.8.54Z"/><path class="l" d="M211.91,376.8l-.91-.64Z"/><path class="b" d="M194.5,398.79c.16-.33.33-.66.5-1C194.83,398.12,194.66,398.46,194.5,398.79Z"/><path class="f" d="M436.91,449.92c1-15.51-2.11-29.9-11.56-42.6-3.18-4.28-7.29-7.65-10.79-11.6,2.09-1.83,3.83-1.66,5.94.34,15.62,14.83,21.54,32.68,17.17,53.84A3.86,3.86,0,0,0,436.91,449.92Z"/><path class="m" d="M436.91,449.92a3.86,3.86,0,0,1,.76,0c-.74,3.61-1.64,7.16-3.7,10.29C434.28,456.58,434.51,452.94,436.91,449.92Z"/><path class="m" d="M432,463.83,433,462Z"/><path class="k" d="M84.16,436.11c3.25-1.24,5.83-2.65,6.74-6.76.64-2.9,3.9-4.41,7.19-4.25,2.79.14,3.9,2,4.36,4.59.6,3.34,2.78,2.41,5,1.77,1.67-.49,3.86-1.54,5,.31.87,1.46-.65,3.11-1.72,4.35-1.56,1.8-2.58,3.51-.36,5.5,0,.49-.07,1-.11,1.46-2.45.64-5.43-2.19-7.36.48-2.6,3.58-6,3.59-9.7,3.33L91.05,446C89.44,442.2,89.45,437.31,84.16,436.11Z"/><path class="m" d="M91.05,446l2.06.93c.77,1.42.19,2.87.21,4.32,0,2.66,3.58,4.39,4.84,2.36,3.38-5.47,8.5-2.94,12.92-3.62a7.32,7.32,0,0,0,.67.58c-1,1.43-2.74,3.06-4,2.24-4.33-2.73-6-.1-8.39,2.85-2,2.43-7.11,1.16-7.12-1.82,0-5.61-3.26-6.8-7.48-7.64Z"/><path class="f" d="M91.05,446l-6.33.2c-4.23-3.63-4.35-5.89-.56-10.05C89.45,437.31,89.44,442.2,91.05,446Z"/><path class="m" d="M112.33,444.72c1.28,2.08.87,4-.58,5.81a7.32,7.32,0,0,1-.67-.58c.29-1.64.57-3.27.86-4.91Z"/><path class="m" d="M110.18,443.09c0-.49.07-1,.1-1.47l1.6,1.89a3.75,3.75,0,0,0-.81.44Z"/><path class="m" d="M111.88,443.51l.45,1.21-.39.32-.87-1.09A3.75,3.75,0,0,1,111.88,443.51Z"/><path class="j" d="M145.69,366.06c2.91-.95,4.93-.69,4.45,3.16a18.82,18.82,0,0,0,0,2.49c.06,8.7-1.74,10.12-10.51,8.27a14.74,14.74,0,0,0-1.49-.15c-.13-2.13-.91-4.34.71-6.28C141.46,371.34,144.09,369.17,145.69,366.06Z"/><path class="p" d="M138.86,373.55c-1.62,1.94-.84,4.15-.71,6.28,0,2.34-1.17,5,1.71,6.54l-1.6.85C134.47,382.85,134.79,375.39,138.86,373.55Z"/><path class="c" d="M165.81,357.9a205.23,205.23,0,0,1,33.63,0Z"/><path class="c" d="M155.84,370l-3.69-2-.39-3.86,4.39-.08C156.05,366,155.94,368,155.84,370Z"/><path class="c" d="M156.07,356.89c2.67,1.11,5.64-.33,8.29,1C161.59,357.66,158.63,358.92,156.07,356.89Z"/><path class="c" d="M284.08,223.32a19.18,19.18,0,0,1,16.23-4.47c2.24.36,3.47.12,3-2.67-.39-2.26-.42-4.48-1.68-6.62-1.44-2.43-1.81-5.16,1.4-8.25-.77,5.32.69,8.66,5,10.22,2.51.9,5.08.84,6.9-1.23s1.29-4.08,0-6.41-4.19-5.62-1.47-8.07,6.35-.34,9.23,1.23a14.06,14.06,0,0,1,4,3.69c2,2.53,1.62,4.79-1.69,5.66s-7,1.53-6.35,6,4.25,5.49,8.2,5.62a2.88,2.88,0,0,1,.89.32c-1.28,4-6.2.34-7.78,3.71l-.21-.2c-.56-6-3.4-8-10.68-7.8-3.29.11-6.5.14-3.61,5,.75,1.26.37,3.2.51,4.83-2.39-.31-4.35-2.43-7-1.64h-4a10,10,0,0,0-7.69,3.67c-1.83,2-2.7,4.24-1.2,6.71a6.29,6.29,0,0,0,6.22,3.17c2.72-.25,4.81-1.94,6.85-3.61,2.43-.44,4.85-1,7.3-1.28,2.14-.2,2.06-1.11,1.27-2.57a2.29,2.29,0,0,1,2.71,2.08c.46,2.14,2,1.56,3.38,1.47l.26.26c-2.64,3.64-7,1.14-10.16,2.82-2.11,0-3.71,1.19-5.43,2.12-5.49,3-10.59,2.75-14.16-.68C281,233.11,280.88,229.37,284.08,223.32Z"/><path class="k" d="M264,199.36c.54-.09,1,0,1.05.66Z"/><path class="b" d="M244.11,464l3.9-.09a16.27,16.27,0,0,1-4,6.68C244,468.43,244.08,466.23,244.11,464Z"/><path class="c" d="M198.05,348c-2.21-.05-1.25,2-2,3-2-3.87-5.15-4.56-9.31-4.18-5.35.49-10.82.88-16.14-.7L191,346c2,0,4,.07,5.16-2.11C197.26,345,198.24,346.22,198.05,348Z"/><path class="c" d="M359.6,428.62c-1.62,9.59.59,17.26,3.52,24.81C356.13,446.38,354.73,437.8,359.6,428.62Z"/><path class="c" d="M409.07,445c0-7.9-.45-15.7-5.12-23,7.1,2.92,9.42,14.61,5.05,23Z"/><path class="c" d="M366,433.33c.37,5.14,1.76,10,3.23,15.06C364.39,445.94,363,439.61,366,433.33Z"/><path class="c" d="M401.94,442.55a28.32,28.32,0,0,1-1.63-13.37C404.33,433.18,404.77,436.24,401.94,442.55Z"/><polygon class="c" points="409 445.02 408.89 445.05 409.07 444.98 409 445.02"/><path class="m" d="M177.88,449.94c-6.48,0-13,0-19.43,0-1.7,0-4.07.56-4.16-2.22-.06-2.32,1.33-3.66,3.77-3.66,13.45,0,26.9,0,40.35,0,2.16,0,4.22.82,4.05,3.34-.14,2.3-2.21,2.53-4.16,2.53-6.81,0-13.62,0-20.42,0Z"/><path class="c" d="M290,407.75c3,.05,5.92.08,8.88.16,1.1,0,2.67-.23,2.62,1.39-.05,1.46-1.56,1.45-2.7,1.48-3.29.09-6.58.14-9.86.2s-6.3-.13-9.45-.23c-1,0-2.19-.25-2.18-1.48s1.28-1.29,2.25-1.32C283.08,407.86,286.56,407.81,290,407.75Z"/><path class="c" d="M303.28,396.17c.65,1,1,2.06-.29,2.91-6,0-11.93.12-17.88-.1-1.86-.07-5.36,1.44-5.3-1.38.05-2.41,3.62-1.21,5.59-1.28C291.36,396.12,297.32,396.2,303.28,396.17Z"/><path class="a" d="M351.89,492l-5.91-.07C348,489,350,488.83,351.89,492Z"/><path class="a" d="M344,492l-6,0C340,489,342,489,344,492Z"/><path class="b" d="M387,422.21c.2-.68.39-1.37.59-2,2.36,1.49,1.61,3.67,1.27,5.76-1.06,1.25-2.25,2.24-4,2.17l-1.85,0c-1.4-.12-2.77-.29-3.06-2.06l6.11-3.05.85.07.37.1-.25-.22C387,422.68,387,422.44,387,422.21Z"/><path class="i" d="M387,440c-3.93,3-5.66,2.55-6.93-1.76A43.11,43.11,0,0,0,379,434c-1.57-3.81.22-5.08,3.7-5.21a12.81,12.81,0,0,1,1.2,6.36c-.89.87-2.25,1.62-1.49,3.14s2.11,1,3.3.45Z"/><path class="f" d="M383.9,435.12a12.81,12.81,0,0,0-1.2-6.36,1.68,1.68,0,0,0,.32-.69l1.85,0c.47,4,2.93,7.68,2.11,11.92l-1.27-1.3C386.21,437,385.42,435.85,383.9,435.12Z"/><path class="c" d="M386.92,423l-.85-.07c0-.64.42-.77,1-.75,0,.23,0,.47,0,.7Z"/><path class="c" d="M252,124a2.48,2.48,0,0,0-2.07,1.73c-2.36-.16-3.29-1.55-2.74-3.71,4.25-16.45,7.28-33.27,14.73-48.75a34.7,34.7,0,0,1,2-3.41c3.43-5.39,8.88-6.18,13.51-1.71,6.11,5.9,8.83,13.85,12.28,21.33.7,1.5,1.31,3,1.88,4.59,1.71,4.62.57,6.58-4.08,8.2C274.09,107,261.87,113.62,252,124Zm27.46-23.83c2.62.1,4.69-1.6,7.12-2.12,1.28-.27,1.57-1.14,1.1-2.23-3.53-8.24-6.5-16.8-12.31-23.84-2.74-3.31-5.73-3.11-8.1.61-1.68,2.63-2.75,5.65-4.09,8.5A168.65,168.65,0,0,0,254,114.69C262.53,109.61,270.78,104.56,279.43,100.21Z"/><path class="b" d="M341,202c-1.26-7.5,4.54-16.15,10.2-18.14,8-2.8,13.94.46,15.55,8.57,1.23,6.19.2,12.18-4.06,17.26-4,4.75-9.29,6.92-13.45,5.46C343.88,213.3,341,208.65,341,202Zm13.84-9c-.43-2.12-.78-5.1-3.54-4.95-4.14.22-4.85,4-5.05,7.29-.14,2.45.53,5.71,3.61,5.39C353.79,200.35,354.25,196.53,354.8,193Zm7.55,10.26c0-.92-.06-2.23-1.36-2-3.31.51-4.29,3.23-4.9,6-.19.89,0,2.32,1.43,1.9C360.33,208.37,361.6,206.07,362.35,203.29Z"/><path class="c" d="M279,162.05c5.89-3.16,12-1,14.73,5.15,3.41,7.66.45,18.75-6.35,23.77-7,5.21-14,2.9-17.67-5.88,1.82.5,2.23,2.37,3.4,3.49s2.22,2.15,3.87,1.75c.4-.1.81-1,.87-1.56.24-2.27-1.36-2.73-3.13-3,2.08-3.58,2.71-7-.75-10.21a6.11,6.11,0,0,1,3.95-3.51c0,4.41-.6,9,2.39,12.78,2,2.53,1.56,4.52-.94,6.49,3.25,1.32,5.82-.09,5.82-2.3,0-3,2.14-4.68,2.79-7.12,1.54-2.64,3.83-4.92,3.91-8.25.08-3.48-2-5.48-4.68-4.41-4.61,1.88-5.68,9.3-1.81,12.54-3.79.22-5.24-1.91-5.42-5.36-.1-1.72.45-3.75-2-4.45.45-2.13,2.37-3.1,3.64-4.59,1.55-1.81,6.16-1.7,5.11-4.31S281.72,162.48,279,162.05Z"/><path class="b" d="M279,162.05c2.68.43,6.76-1.42,7.76,1s-3.56,2.5-5.11,4.31c-1.27,1.49-3.19,2.46-3.64,4.59l-.09.08a6.11,6.11,0,0,0-3.95,3.51c-3.44,3.68-2.77,7,.75,10.21,1.77.24,3.37.7,3.13,3-.06.57-.47,1.46-.87,1.56-1.65.4-2.79-.72-3.87-1.75s-1.58-3-3.4-3.49C266.83,176.34,271.2,165.35,279,162.05Z"/><path class="k" d="M372.23,170.75c0,4.81-1.25,5.67-5.34,3.24-2.67-1.59-5.13-3.54-7.73-5.26-1.82-1.22-4-2.4-2.77-5a6,6,0,0,1,5.69-3.27C367.08,160.49,372.18,165.77,372.23,170.75Z"/><path class="k" d="M293.09,139.92a12.25,12.25,0,0,1,1.35.54c2.19,1.22,4.56,2.5,3.33,5.57-1.33,3.34-4.15,2.39-6.71,1.89-1.91-2.55-4.72-1.77-7.23-1.82-4-.08-6.09-1.83-5.77-6h0C283.06,138.47,288.08,139.56,293.09,139.92Z"/><path class="n" d="M278.06,140.11c-.32,4.16,1.75,5.91,5.77,6,2.51.05,5.32-.73,7.23,1.82-3.61-.29-7.24-.48-10.83-.89-1.82-.21-3.69-.85-4-3.05C276,142.4,275.65,140.54,278.06,140.11Z"/><path class="n" d="M293.09,139.92c-5-.36-10-1.45-15,.18C281.42,137.11,288.92,137,293.09,139.92Z"/><path class="c" d="M320,222c-.87,4-2.29,7.69-5.91,10.08l-.26-.26c.59-4.17.26-8.89,6-10Z"/><path class="f" d="M111.07,444l.87,1.09c-.29,1.64-.57,3.27-.86,4.91-4.42.68-9.54-1.85-12.92,3.62-1.26,2-4.81.3-4.84-2.36,0-1.45.56-2.9-.21-4.32,3.69.26,7.1.25,9.7-3.33,1.93-2.67,4.91.16,7.36-.48Z"/><path class="b" d="M319.78,221.82c-5.7,1.13-5.37,5.85-6,10-1.38.09-2.92.67-3.38-1.47a2.29,2.29,0,0,0-2.71-2.08c-1.63-.36-3.48.09-4.86-1.24.63-1.37,1.93-.91,3-1.09,3-.52,1.2-1.35.14-2.13-.14-1.63.24-3.57-.51-4.83-2.89-4.84.32-4.87,3.61-5C316.38,213.77,319.22,215.86,319.78,221.82Z"/><path class="j" d="M302.87,227.05c1.38,1.33,3.23.88,4.86,1.24.79,1.46.87,2.37-1.27,2.57-2.45.23-4.87.84-7.3,1.28-4.07.07-5.72-4.23-10.67-5.28,3.83-.7,5.2-2.63,6.49-4.66h4C300.41,223.71,299.33,227.22,302.87,227.05Z"/><path class="l" d="M295,222.2c-1.29,2-2.66,4-6.49,4.66,4.95,1,6.6,5.35,10.67,5.28-2,1.67-4.13,3.36-6.85,3.61a6.29,6.29,0,0,1-6.22-3.17c-1.5-2.47-.63-4.73,1.2-6.71A10,10,0,0,1,295,222.2Z"/><path class="l" d="M302.87,227.05c-3.54.17-2.46-3.34-3.87-4.86,2.65-.79,4.61,1.33,7,1.64,1.06.78,2.86,1.61-.14,2.13C304.8,226.14,303.5,225.68,302.87,227.05Z"/><path class="c" d="M387,422.91l.25.22-.37-.1Z"/><path class="c" d="M383.9,435.12c1.52.73,2.31,1.84,1.81,3.59-1.19.51-2.51,1.12-3.3-.45S383,436,383.9,435.12Z"/><path class="o" d="M279.43,100.21c-8.65,4.35-16.9,9.4-25.4,14.48a168.65,168.65,0,0,1,9.12-33.56c2.05-.25,3.35,1,4.73,2.23,4,3.63,6.6,8.19,8.73,13.06C277.26,97.92,277.59,99.62,279.43,100.21Z"/><path class="p" d="M279.43,100.21c-1.84-.59-2.17-2.29-2.82-3.79-2.13-4.87-4.73-9.43-8.73-13.06-1.38-1.24-2.68-2.48-4.73-2.23,1.34-2.85,2.41-5.87,4.09-8.5,2.37-3.72,5.36-3.92,8.1-.61,5.81,7,8.78,15.6,12.31,23.84.47,1.09.18,2-1.1,2.23C284.12,98.61,282.05,100.31,279.43,100.21Z"/><path class="k" d="M354.8,193c-.55,3.5-1,7.32-5,7.73-3.08.32-3.75-2.94-3.61-5.39.2-3.29.91-7.07,5.05-7.29C354,187.93,354.37,190.91,354.8,193Z"/><path class="e" d="M362.35,203.29c-.75,2.78-2,5.08-4.83,5.9-1.44.42-1.62-1-1.43-1.9.61-2.8,1.59-5.52,4.9-6C362.29,201.06,362.34,202.37,362.35,203.29Z"/><path class="k" d="M285.44,181.81c-3.87-3.24-2.8-10.66,1.81-12.54,2.64-1.07,4.76.93,4.68,4.41-.08,3.33-2.37,5.61-3.91,8.25Z"/><path class="b" d="M285.44,181.81l2.58.12c-.65,2.44-2.79,4.1-2.79,7.12,0,2.21-2.57,3.62-5.82,2.3,2.5-2,3-4,.94-6.49-3-3.75-2.36-8.37-2.39-12.78l.09-.08c2.42.7,1.87,2.73,2,4.45C280.2,179.9,281.65,182,285.44,181.81Z"/><path class="e" d="M274.76,185.8c-3.52-3.16-4.19-6.53-.75-10.21C277.47,178.76,276.84,182.22,274.76,185.8Z"/></svg>