<svg xmlns="http://www.w3.org/2000/svg" version="1.1" xmlns:xlink="http://www.w3.org/1999/xlink" xmlns:svgjs="http://svgjs.dev/svgjs" width="1429" height="566" preserveAspectRatio="none" viewBox="0 0 1429 566">
    <g mask="url(&quot;#SvgjsMask1203&quot;)" fill="none">
        <rect width="1429" height="566" x="0" y="0" fill="rgba(14, 116, 144, 1)"></rect>
        <path d="M0,460.059C85.974,449.27,114.607,336.788,179.649,279.539C232.008,233.454,301.047,212.014,344.134,157.161C395.805,91.381,449.405,18.935,450.059,-64.709C450.744,-152.408,420.511,-252.383,347.716,-301.297C274.932,-350.204,174.807,-284.203,90.033,-306.625C9.021,-328.052,-41.741,-433.948,-125.196,-426.378C-207.652,-418.899,-261.636,-336.043,-311.802,-270.178C-359.562,-207.472,-397.93,-136.762,-405.536,-58.307C-412.95,18.175,-388.145,92.844,-353.65,161.507C-320.113,228.263,-268.253,280.393,-211.168,328.584C-146.499,383.178,-83.973,470.597,0,460.059" fill="#0b5d73"></path>
        <path d="M1429 922.506C1497.232 921.281 1558.99 893.146 1621.167 865.018 1693.453 832.317 1790.0430000000001 818.076 1821.167 745.097 1852.375 671.921 1780.012 595.899 1769.576 517.033 1758.968 436.86699999999996 1814.136 339.23900000000003 1759.567 279.562 1704.665 219.52100000000002 1603.789 253.16000000000003 1522.664 247.01100000000002 1459.153 242.197 1398.257 236.79899999999998 1335.455 247.41500000000002 1265.169 259.296 1193.458 269.803 1136.249 312.329 1070.862 360.93399999999997 1011.006 423.994 991.495 503.096 971.244 585.199 982.3430000000001 678.06 1028.5729999999999 748.869 1072.856 816.6949999999999 1158.031 839.7719999999999 1232.347 871.998 1295.723 899.48 1359.933 923.746 1429 922.506" fill="#118bad"></path>
    </g>
    <defs>
        <mask id="SvgjsMask1203">
            <rect width="1429" height="566" fill="#ffffff"></rect>
        </mask>
    </defs>
</svg>